<svg xmlns="http://www.w3.org/2000/svg" xmlns:xlink="http://www.w3.org/1999/xlink" viewBox="0 0 42.499900817871094 18.0"><path d="M 3.1538 11.0712 C 3.1502 11.0712 3.1468 11.0713 3.1437 11.0716 C 2.6795 11.1035 2.7309 11.1491 2.4881 11.2102 L 2.1707 11.759 C 2.4115 11.898 2.6407 11.9765 2.8919 11.9765 C 3.0613 11.9765 3.2406 11.9408 3.4402 11.8639 C 3.6471 11.7843 3.9183 11.7683 4.1684 11.7683 C 4.3367 11.7683 4.4954 11.7755 4.6185 11.7755 C 4.7328 11.7755 4.8164 11.7693 4.8484 11.7452 C 4.9497 11.6691 3.4226 11.0712 3.1538 11.0712 ZM 6.1947 7.553 C 8.8412 7.553 11.6362 9.7486 10.5617 13.9386 C 10.3158 14.8939 10.0424 15.4639 9.6145 15.6485 C 9.5355 15.6967 9.4514 15.7183 9.3642 15.7183 C 8.603 15.7183 7.5981 14.0727 7.5379 14.0554 C 7.3495 14.0015 8.7702 12.8996 8.552 11.882 C 8.5053 11.6641 8.3425 10.883 7.2734 10.883 C 7.2069 10.883 7.1369 10.8861 7.0632 10.8924 C 6.6102 10.9316 6.4712 11.2811 6.3232 11.2811 C 6.2391 11.2811 6.152 11.1681 6.0026 10.8207 C 5.6573 10.0179 3.1859 9.708 2.9306 9.5981 C 2.7737 9.5306 2.6818 9.4528 2.8666 9.1833 C 3.6173 8.0884 4.8879 7.553 6.1947 7.553 ZM 2.571 10.2896 C 2.8415 10.2896 5.1188 10.8856 5.2261 10.9365 C 5.354 10.9662 5.7436 12.1776 6.1816 12.2427 C 6.2512 12.2531 6.3159 12.2578 6.3763 12.2578 C 6.9902 12.2578 7.155 11.7712 7.3845 11.7712 C 7.3995 11.7712 7.4148 11.7732 7.4305 11.7777 C 8.4015 12.0515 7.2586 13.0707 6.4531 13.8271 C 6.0029 14.2499 9.0914 17.0653 9.0914 17.0653 L 5.8792 17.1375 L 4.9843 15.8725 C 4.9098 15.7672 4.6519 15.6745 4.2726 15.6745 C 3.9373 15.6745 3.5073 15.7469 3.0253 15.9471 C 2.7759 16.0507 2.5753 16.0936 2.4141 16.0936 C 1.6441 16.0936 1.772 15.1169 1.772 15.1169 C 1.6681 14.9936 1.5863 14.8892 1.5227 14.8007 L 1.5227 14.8007 C 1.5352 14.801 1.5478 14.8011 1.5605 14.8011 C 2.0048 14.8011 2.6491 14.6538 2.7609 14.516 C 2.906 14.4448 2.5877 14.1591 2.3807 14.1591 C 2.3604 14.1591 2.3411 14.1619 2.3235 14.1679 C 2.0738 14.0564 1.7683 14.1002 1.5176 14.0177 C 1.6367 13.569 0.9684 13.1209 1.0114 13.025 L 2.55 10.2919 C 2.5544 10.2904 2.5614 10.2896 2.571 10.2896 ZM 6.0774 6.8229 C 5.0107 6.8229 3.7742 7.0664 2.8643 7.9611 C 2.3408 8.4758 2.2672 9.0044 1.666 10.2327 C 1.2313 11.1209 -0.0853 12.8809 0.0001 13.1478 C 0.2209 13.8376 0.8006 13.3705 0.7415 14.4599 C 0.6934 15.3484 1.1395 14.7494 1.2325 15.8721 C 1.2598 16.2017 0.9993 17.1363 0.9637 17.2131 C 1.0478 17.6515 1.4424 17.805 1.7818 17.821 C 1.7844 17.8212 1.7871 17.8212 1.7897 17.8212 C 2.1733 17.8212 3.0486 16.5523 3.2385 16.469 C 3.3747 16.4092 3.7238 16.3642 3.9588 16.3642 C 4.0565 16.3642 4.1345 16.372 4.1693 16.3897 C 4.3907 16.5027 5.0522 17.9328 5.3171 18 L 9.2852 17.9603 C 9.5304 17.9578 9.6871 17.5464 10.1572 16.8315 C 11.0834 15.4234 11.5556 13.7256 11.5726 12.3587 C 11.6129 9.0962 10.043 7.9371 8.3203 7.1637 C 8.2149 7.1163 7.2484 6.8229 6.0774 6.8229 Z" style="fill:#254048;stroke:none"/><path d="M 21.4549 13.5601 Q 22.6942 13.5601 23.9456 13.9934 Q 26.46 14.8641 28.478 17.0937 Q 26.0531 15.3035 23.7421 14.7095 Q 22.5867 14.4124 21.4312 14.4124 Q 20.2757 14.4124 19.1202 14.7095 Q 16.8092 15.3035 14.3843 17.0937 Q 16.5 14.8803 18.9656 14.0015 Q 20.2041 13.5601 21.4549 13.5601 ZM 21.4312 12.8948 Q 18.5831 12.9599 16.4756 14.4084 Q 14.368 15.8568 13.8309 16.8984 Q 13.3427 17.7121 13.774 17.9237 Q 13.9044 17.9876 14.0355 17.9876 Q 14.3381 17.9876 14.6447 17.647 Q 15.4747 16.7682 18.4529 15.6697 Q 19.942 15.1204 21.4312 15.1204 Q 22.9203 15.1204 24.4094 15.6697 Q 27.3876 16.7682 28.2176 17.6633 Q 28.5431 18 28.8415 18 Q 28.9758 18 29.1046 17.9318 Q 29.5196 17.7121 29.0314 16.8984 Q 28.4943 15.8568 26.3868 14.4084 Q 24.2792 12.9599 21.4312 12.8948 Z" style="fill:#254048;stroke:none"/><path d="M 36.8969 12.5146 Q 36.5364 12.5146 36.3162 12.7549 Q 36.0959 12.9952 36.0959 13.2955 Q 36.0959 13.5558 36.3162 13.8061 Q 36.5364 14.0564 36.8768 14.0564 Q 37.2573 14.0564 37.4675 13.8261 Q 37.6778 13.5959 37.6778 13.2955 Q 37.6778 12.9752 37.4275 12.7449 Q 37.1772 12.5146 36.8969 12.5146 ZM 36.8969 12.3344 Q 37.2573 12.3344 37.5676 12.6147 Q 37.878 12.8951 37.878 13.2955 Q 37.878 13.6559 37.6077 13.9563 Q 37.3374 14.2566 36.8768 14.2566 Q 36.4563 14.2566 36.186 13.9363 Q 35.9157 13.6159 35.9157 13.2955 Q 35.9157 12.9151 36.186 12.6248 Q 36.4563 12.3344 36.8969 12.3344 ZM 36.8969 7.3086 Q 36.5164 7.3086 36.4563 8.0895 L 36.4563 11.5135 Q 36.4764 11.9139 36.2361 12.2543 Q 36.0258 12.3344 35.8256 12.3344 Q 35.6254 12.3344 35.4352 12.2543 L 32.1914 11.1931 Q 31.9211 11.1307 31.7324 11.1307 Q 31.3758 11.1307 31.3104 11.3533 Q 31.1902 11.7137 31.9311 12.014 L 35.1949 13.0553 Q 35.5753 13.1754 35.8156 13.5358 Q 35.8156 13.9763 35.5553 14.2967 L 33.553 17.0599 Q 33.1325 17.7407 33.4328 17.9409 Q 33.5134 18 33.6099 18 Q 33.8729 18 34.2538 17.5605 L 36.2561 14.7973 Q 36.4764 14.4569 36.8969 14.3167 Q 37.2973 14.4369 37.5376 14.7973 L 39.5399 17.5605 Q 39.9208 18 40.1731 18 Q 40.2656 18 40.3408 17.9409 Q 40.6412 17.7207 40.2407 17.0399 L 38.2184 14.2767 Q 37.9581 13.9563 37.9781 13.5358 Q 38.2184 13.1754 38.6188 13.0553 L 41.8626 12.014 Q 42.6035 11.7137 42.4833 11.3733 Q 42.4032 11.133 42.0384 11.133 Q 41.8559 11.133 41.6023 11.1931 L 38.3385 12.2543 Q 38.1483 12.3244 37.9531 12.3244 Q 37.7578 12.3244 37.5576 12.2543 Q 37.2973 11.9139 37.3173 11.5135 L 37.3173 8.0895 Q 37.2573 7.3086 36.8969 7.3086 Z" style="fill:#254048;stroke:none"/></svg>