<svg xmlns="http://www.w3.org/2000/svg" xmlns:xlink="http://www.w3.org/1999/xlink" viewBox="0 0 27.794906616210938 18.0"><path d="M 3.6946 12.7389 L 4.0788 17.0542 L 3.3103 17.0542 L 3.6946 12.7389 ZM 3.7241 2.8966 L 6.2069 17.0542 L 4.6108 17.0542 L 3.8424 10.8473 L 3.5764 10.8473 L 2.8079 17.0542 L 1.1527 17.0542 L 3.7241 2.8966 ZM 3.5764 0 L 0 18 L 7.3892 18 L 3.8424 0 Z" style="fill:#000000;stroke:none"/><path d="M 18.592 11.4092 Q 19.8576 12.1584 19.8576 13.6567 L 17.3366 13.6567 Q 17.3366 12.1584 18.592 11.4092 ZM 19.8576 14.3553 Q 19.5741 15.3576 18.592 15.3576 Q 17.61 15.3576 17.3569 14.3553 ZM 27.1267 16.1068 L 27.1267 17.3014 L 10.0675 17.3014 L 10.0675 16.1068 ZM 18.592 10.7106 Q 16.6583 11.4395 16.6583 13.839 Q 16.6583 14.7501 17.0532 15.3576 L 9.3892 15.3576 L 9.3892 18 L 27.7949 18 L 27.7949 15.3576 L 20.1613 15.3576 Q 20.5561 14.7501 20.5561 13.839 Q 20.5561 11.4395 18.592 10.7106 Z" style="fill:#000000;stroke:none"/></svg>