<svg xmlns="http://www.w3.org/2000/svg" xmlns:xlink="http://www.w3.org/1999/xlink" viewBox="0 0 18.444974899291992 18.0"><path d="M 1.7717 13.7289 L 1.3921 14.5515 L 0.1898 17.2407 L 0 17.6203 L 0.791 18 L 0.9808 17.5887 L 1.8034 15.7221 L 2.2147 16.4497 L 2.5943 17.209 L 2.974 16.4497 L 3.4169 15.6588 L 3.8282 16.4497 L 4.2079 17.209 L 4.5875 16.4497 L 4.9988 15.6588 L 5.4417 16.4497 L 5.8214 17.209 L 6.2011 16.4497 L 6.6123 15.6904 L 7.0236 16.4497 L 7.4349 17.209 L 7.8146 16.4497 L 8.2259 15.6588 L 8.6372 16.4497 L 9.0485 17.209 L 9.4281 16.4497 L 9.8394 15.6588 L 10.2507 16.4497 L 10.662 17.209 L 11.0417 16.4497 L 11.453 15.6588 L 11.8643 16.4497 L 12.2439 17.209 L 12.6552 16.4497 L 13.0665 15.6588 L 13.4778 16.4497 L 13.8575 17.209 L 14.2688 16.4497 L 14.68 15.6588 L 15.123 16.4814 L 15.5026 17.1774 L 15.9139 16.4814 L 16.3569 15.6271 L 17.4642 17.6203 L 17.6857 18 L 18.445 17.5887 L 18.2551 17.209 L 16.7365 14.4882 L 16.3569 13.8238 L 15.9772 14.5198 L 15.5026 15.3424 L 15.0597 14.5198 L 14.6484 13.7921 L 14.3004 14.5198 L 13.8575 15.3108 L 13.4462 14.5198 L 13.0665 13.7605 L 12.6869 14.5198 L 12.2756 15.3108 L 11.8326 14.5198 L 11.453 13.7605 L 11.0733 14.5198 L 10.6304 15.3108 L 10.2191 14.5198 L 9.8394 13.7605 L 9.4598 14.5198 L 9.0485 15.3108 L 8.6055 14.5198 L 8.2259 13.7605 L 7.8462 14.5198 L 7.4349 15.2791 L 7.0236 14.5198 L 6.6123 13.7605 L 6.2327 14.5198 L 5.8214 15.3108 L 5.4101 14.5198 L 4.9988 13.7605 L 4.6192 14.5198 L 4.2079 15.3108 L 3.7966 14.5198 L 3.4169 13.7605 L 3.0056 14.5198 L 2.5943 15.3108 L 2.183 14.5198 L 1.7717 13.7289 Z" style="fill:#254048;stroke:none"/></svg>