<svg xmlns="http://www.w3.org/2000/svg" xmlns:xlink="http://www.w3.org/1999/xlink" viewBox="0 0 42.19258499145508 18.0"><path d="M 2.6167 4.8329 Q 3.5353 7.8394 3.8276 9.4957 Q 4.1199 11.152 5.1081 12.4604 Q 6.0964 13.7687 7.7527 14.3394 Q 9.409 14.9101 10.773 16.1906 Q 12.1092 14.9101 13.7656 14.3394 Q 15.4219 13.7687 16.4101 12.4604 Q 17.3983 11.152 17.6906 9.4957 Q 17.9829 7.8394 18.9015 4.8329 L 18.9015 4.8329 Q 18.3448 7.5888 18.0247 9.7741 Q 17.7045 11.9593 16.4797 13.3929 Q 15.2549 14.8265 13.5707 15.4668 Q 11.8865 16.1071 11.8587 17.137 L 9.6596 17.137 Q 9.6317 16.1071 7.9476 15.4668 Q 6.2634 14.8265 5.0386 13.3929 Q 3.8137 11.9593 3.4936 9.7741 Q 3.1735 7.5888 2.6167 4.8329 ZM 0 0.9914 Q 2.3383 4.137 2.5332 6.9764 Q 2.7281 9.8158 3.1317 11.5 Q 3.5353 13.1841 4.8994 14.4647 Q 6.2634 15.7452 7.5857 16.1767 Q 8.9079 16.6081 9.0471 18 L 12.4711 18 Q 12.6103 16.6081 13.9326 16.1767 Q 15.2549 15.7452 16.6189 14.4647 Q 17.9829 13.1841 18.3866 11.5 Q 18.7902 9.8158 18.9851 6.9764 Q 19.1799 4.137 21.5183 0.9914 L 21.3512 0.9914 Q 19.9594 2.5503 18.9711 3.6916 Q 17.9829 4.8329 17.2731 8.4379 Q 16.5632 12.0428 14.3223 13.1145 Q 12.0814 14.1863 10.773 14.9101 Q 9.4369 14.1863 7.1959 13.1145 Q 4.955 12.0428 4.2452 8.4379 Q 3.5353 4.8329 2.5471 3.6916 Q 1.5589 2.5503 0.167 0.9914 Z" style="fill:#254048;stroke:none"/><path d="M 24.9521 7.4579 L 24.9521 9.114 C 24.3867 9.114 24.1039 8.8312 24.1039 8.2657 C 24.1039 7.7272 24.3867 7.4579 24.9521 7.4579 ZM 27.047 0 C 26.5839 0 26.1919 0.1164 25.871 0.3491 C 25.2584 0.7934 24.9521 1.4397 24.9521 2.2879 L 24.9521 6.8723 C 24.0097 6.8723 23.5317 7.3368 23.5183 8.2657 C 23.5183 9.2082 23.9962 9.6794 24.9521 9.6794 L 24.9521 18 L 25.6985 18 L 25.6985 2.7322 C 25.6985 1.7089 25.8971 1.0526 26.2943 0.7631 C 26.5 0.6131 26.7702 0.5382 27.1325 0.5382 C 27.4696 0.5382 27.8865 0.603 28.4056 0.7328 C 28.4864 0.7613 28.5571 0.7756 28.6177 0.7756 C 28.7289 0.7756 28.8063 0.7277 28.8499 0.6318 C 28.8633 0.4703 28.7422 0.3558 28.4864 0.2885 C 27.9478 0.0962 27.468 0 27.047 0 Z" style="fill:#254048;stroke:none"/><path d="M 32.8454 0.5787 Q 33.4641 0.5787 33.8233 0.9279 Q 34.1825 1.2772 34.1825 1.7162 L 31.5284 1.7162 Q 31.5284 1.2772 31.8876 0.9279 Q 32.2468 0.5787 32.8454 0.5787 ZM 33.1647 2.255 L 33.1647 3.2727 L 32.5262 3.2727 L 32.5262 2.255 ZM 32.8454 3.8514 Q 33.5239 3.8514 33.8632 3.9712 Q 33.6636 7.3636 33.3244 15.0266 Q 33.6636 15.6253 33.6636 16.1641 Q 33.6636 17.3614 32.8454 17.3614 Q 32.0273 17.3614 32.0273 16.1641 Q 32.0273 15.6253 32.3665 15.0266 Q 32.0472 7.3636 31.8277 3.9712 Q 32.1669 3.8514 32.8454 3.8514 ZM 32.8454 0 Q 31.9275 0 31.3887 0.5687 Q 30.8499 1.1375 30.8499 2.255 L 31.9873 2.255 L 31.9873 3.2727 Q 31.5683 3.3326 31.1692 3.5521 Q 31.4485 8.3814 31.5483 10.796 Q 31.6481 13.2106 31.6681 15.0266 Q 31.3687 15.6851 31.3687 16.4435 Q 31.4286 18 32.8454 18 Q 34.2623 18 34.3421 16.4435 Q 34.3421 15.6851 34.0228 15.0266 Q 34.0428 13.2106 34.1426 10.796 Q 34.2423 8.3814 34.5217 3.5521 Q 34.1426 3.3326 33.7035 3.2727 L 33.7035 2.255 L 34.861 2.255 Q 34.861 1.1375 34.3222 0.5687 Q 33.7834 0 32.8454 0 Z" style="fill:#254048;stroke:none"/><path d="M 38.2948 7.4579 L 38.2948 9.114 C 37.7294 9.114 37.4466 8.8312 37.4466 8.2657 C 37.4466 7.7272 37.7294 7.4579 38.2948 7.4579 ZM 40.3897 0 C 39.9266 0 39.5346 0.1164 39.2137 0.3491 C 38.6011 0.7934 38.2948 1.4397 38.2948 2.2879 L 38.2948 6.8723 C 37.3524 6.8723 36.8744 7.3368 36.861 8.2657 C 36.861 9.2082 37.3389 9.6794 38.2948 9.6794 L 38.2948 18 L 39.0412 18 L 39.0412 2.7322 C 39.0412 1.7089 39.2398 1.0526 39.637 0.7631 C 39.8428 0.6131 40.1129 0.5382 40.4753 0.5382 C 40.8123 0.5382 41.2292 0.603 41.7483 0.7328 C 41.8291 0.7613 41.8998 0.7756 41.9604 0.7756 C 42.0716 0.7756 42.149 0.7277 42.1926 0.6318 C 42.206 0.4703 42.0849 0.3558 41.8291 0.2885 C 41.2905 0.0962 40.8107 0 40.3897 0 Z" style="fill:#254048;stroke:none"/></svg>