<svg xmlns="http://www.w3.org/2000/svg" xmlns:xlink="http://www.w3.org/1999/xlink" viewBox="0 0 54.396400451660156 18.0"><path d="M 10.2909 0.5105 Q 10.371 0.5105 10.4511 0.5706 Q 10.6013 0.6907 10.7114 1.2814 Q 10.8215 1.872 11.1018 2.0622 Q 11.3821 2.2624 11.5823 2.2624 Q 11.8025 2.2624 11.8025 2.6128 L 10.6613 2.6128 L 10.6613 3.4837 L 9.9005 3.4837 L 9.9005 2.6128 L 8.7593 2.6128 Q 8.7593 2.2624 8.9795 2.2624 Q 9.1998 2.2624 9.4701 2.0622 Q 9.7504 1.872 9.8605 1.2814 Q 9.9606 0.6907 10.1308 0.5706 Q 10.2109 0.5105 10.2909 0.5105 ZM 15.1036 0.4905 Q 15.1861 0.4905 15.2662 0.5506 Q 15.4264 0.6707 15.5365 1.2613 Q 15.6466 1.842 15.9169 2.0422 Q 16.1972 2.2424 16.4074 2.2424 Q 16.6277 2.2424 16.6277 2.6128 L 15.4965 2.6128 L 15.4965 3.4837 L 14.7257 3.4837 L 14.7257 2.6128 L 13.5944 2.6128 Q 13.5944 2.2424 13.7947 2.2424 Q 14.0049 2.2424 14.2952 2.0422 Q 14.5755 1.842 14.6756 1.2613 Q 14.7757 0.6707 14.9359 0.5506 Q 15.021 0.4905 15.1036 0.4905 ZM 5.4633 0.5105 Q 5.5459 0.5105 5.626 0.5706 Q 5.7962 0.6907 5.8963 1.2814 Q 6.0064 1.872 6.2867 2.0622 Q 6.557 2.2624 6.7772 2.2624 Q 6.9974 2.2624 6.9974 2.6328 L 5.8562 2.6328 L 5.8562 3.5037 L 5.0954 3.5037 L 5.0954 2.6328 L 3.9542 2.6328 Q 3.9542 2.2624 4.1544 2.2624 Q 4.3746 2.2624 4.6549 2.0622 Q 4.9352 1.872 5.0354 1.2814 Q 5.1355 0.6907 5.2956 0.5706 Q 5.3807 0.5105 5.4633 0.5105 ZM 3.4627 4.5424 L 3.4627 4.5424 L 3.4627 4.5424 Q 3.4627 4.5424 3.4627 4.5424 ZM 17.1614 4.657 L 17.1614 4.657 Q 17.1614 4.657 17.1614 4.657 L 17.1614 4.657 L 17.1614 4.657 ZM 10.2909 3.9242 Q 11.8626 3.9242 11.8626 5.4258 Q 11.8626 6.7372 11.1819 9.7904 Q 10.4911 12.8437 10.4911 14.6756 Q 10.4911 15.7267 11.7325 17.4085 L 8.8494 17.4085 Q 10.0707 15.7267 10.0707 14.6756 Q 10.0707 12.8437 9.39 9.7904 Q 8.6992 6.7372 8.6992 5.4258 Q 8.6992 3.9242 10.2909 3.9242 ZM 15.1061 3.9242 Q 16.6977 3.9242 16.6977 5.4057 Q 16.6977 6.7372 16.007 9.7904 Q 15.3163 12.8437 15.3163 14.6756 Q 15.3163 15.7267 16.5476 17.4085 L 13.6545 17.4085 Q 14.9058 15.7267 14.9058 14.6756 Q 14.9058 12.8437 14.2151 9.7904 Q 13.5244 6.7372 13.5244 5.4057 Q 13.5244 3.9242 15.1061 3.9242 ZM 5.4658 3.9442 Q 7.0575 3.9442 7.0575 5.4258 Q 7.0575 6.7672 6.3668 9.8104 Q 5.686 12.8637 5.686 14.6956 Q 5.686 15.7467 6.9073 17.4285 L 4.0243 17.4285 Q 5.2656 15.7467 5.2656 14.6956 Q 5.2656 12.8637 4.5749 9.8104 Q 3.8941 6.7672 3.8941 5.4258 Q 3.8941 3.9442 5.4658 3.9442 ZM 10.2909 0 Q 10.1208 0 9.9506 0.0801 Q 9.6202 0.2302 9.4601 1.0511 Q 9.3099 1.872 8.7593 1.872 Q 8.2388 1.872 8.2388 3.0232 L 9.4801 3.0232 L 9.5101 3.4837 Q 8.1286 3.4837 8.1286 5.7561 Q 8.1286 6.6371 8.8294 9.7404 Q 9.5301 12.8437 9.5301 14.6756 Q 9.5301 15.5265 8.2788 17.2283 Q 8.0686 17.2283 8.0686 17.5587 Q 8.0686 17.9991 8.6092 17.9991 L 11.9527 17.9991 Q 12.5033 17.9991 12.5033 17.5587 Q 12.5033 17.2283 12.2831 17.2283 Q 11.0618 15.5265 11.0618 14.6756 Q 11.0618 12.8437 11.7425 9.7404 Q 12.4332 6.6371 12.4332 5.7561 Q 12.4332 3.4837 11.0818 3.4837 L 11.0818 3.0232 L 12.3231 3.0232 Q 12.3231 1.872 11.8025 1.872 Q 11.252 1.872 11.1118 1.0511 Q 10.9717 0.2302 10.6313 0.0801 Q 10.4611 0 10.2909 0 ZM 15.1036 0 Q 14.9359 0 14.7657 0.0801 Q 14.4253 0.2302 14.2752 1.0411 Q 14.115 1.842 13.5944 1.842 Q 13.0639 1.842 13.0639 3.0232 L 14.3152 3.0232 L 14.3152 3.4837 Q 12.9638 3.4837 12.9638 5.7361 Q 12.9638 6.6371 13.6445 9.7404 Q 14.3352 12.8437 14.3352 14.6556 Q 14.3352 15.5065 13.1139 17.2083 Q 12.8937 17.2083 12.8937 17.5587 Q 12.8937 17.9991 13.4443 17.9991 L 16.7878 17.9991 Q 17.3284 17.9991 17.3284 17.5587 Q 17.3284 17.2083 17.1082 17.2083 Q 15.8669 15.5065 15.8669 14.6556 Q 15.8669 12.8437 16.5676 9.7404 Q 17.2684 6.6371 17.2684 5.7361 Q 17.2684 5.5118 17.2547 5.3099 L 17.2547 5.3099 L 17.2684 5.4057 Q 19.6909 5.4057 19.7109 9.5802 L 19.7109 17.9991 L 20.6119 17.9991 L 20.6119 9.5602 Q 20.6119 4.4948 17.1382 4.4948 L 17.1614 4.657 L 17.1614 4.657 Q 16.884 3.4837 15.8869 3.4837 L 15.8869 3.0232 L 17.1582 3.0232 Q 17.1582 1.842 16.6077 1.842 Q 16.0871 1.842 15.9269 1.0411 Q 15.7768 0.2302 15.4364 0.0801 Q 15.2712 0 15.1036 0 ZM 5.4658 0.025 Q 5.2956 0.025 5.1254 0.1001 Q 4.7851 0.2503 4.6349 1.0611 Q 4.4848 1.872 3.9542 1.872 Q 3.4336 1.872 3.4336 3.0532 L 4.675 3.0532 L 4.675 3.5037 Q 3.7572 3.5037 3.4627 4.5424 L 3.4627 4.5424 L 3.4737 4.4647 Q 0 4.4647 0 9.5401 L 0 17.9791 L 0.901 17.9791 L 0.901 9.5602 Q 0.9209 5.3944 3.3335 5.3857 L 3.3335 5.3857 Q 3.3235 5.5626 3.3235 5.7561 Q 3.3235 6.6571 4.0143 9.7604 Q 4.695 12.8637 4.695 14.6756 Q 4.695 15.5265 3.4737 17.2283 Q 3.2535 17.2283 3.2535 17.5787 Q 3.2535 18 3.7572 18 Q 3.7801 18 3.804 17.9991 L 7.1476 17.9991 Q 7.1711 18 7.1936 18 Q 7.6882 18 7.6882 17.5787 Q 7.6882 17.2283 7.4779 17.2283 Q 6.2266 15.5265 6.2266 14.6756 Q 6.2266 12.8637 6.9274 9.7604 Q 7.6281 6.6571 7.6281 5.7561 Q 7.6281 3.5037 6.2466 3.5037 L 6.2466 3.0532 L 7.518 3.0532 Q 7.518 1.872 6.9674 1.872 Q 6.4469 1.872 6.2967 1.0611 Q 6.1365 0.2503 5.8062 0.1001 Q 5.636 0.025 5.4658 0.025 Z" style="fill:#000000;stroke:none"/><path d="M 26.978 14.1718 C 28.052 14.1718 29.3963 14.7235 30.0468 15.374 C 30.616 15.9432 30.6904 16.6977 30.7112 17.3989 L 23.2763 17.3989 C 23.2972 16.6977 23.3716 15.9432 23.9407 15.374 C 24.5912 14.7235 25.9039 14.1718 26.978 14.1718 ZM 26.978 13.5707 C 25.7038 13.5707 24.3329 14.1593 23.5294 14.9627 C 22.7053 15.7868 22.6119 16.8718 22.6119 17.6836 L 22.6119 18 L 31.344 18 L 31.344 17.6836 C 31.344 16.8718 31.2822 15.7868 30.4581 14.9627 C 29.6547 14.1593 28.2521 13.5707 26.978 13.5707 Z" style="fill:#000000;stroke:none"/><path d="M 40.2305 0.6024 L 40.2077 4.08 L 40.2044 4.08 C 37.9532 3.8865 36.0066 3.7405 33.935 3.5037 L 33.935 0.8653 L 40.2305 0.6024 ZM 40.5162 0 L 40.2207 0.0131 L 33.6281 0.2873 C 33.4699 0.2932 33.3445 0.4229 33.344 0.5812 L 33.344 3.7682 C 33.3436 3.9183 33.4561 4.0448 33.6052 4.062 C 35.7928 4.3194 37.8116 4.4665 40.1538 4.6678 L 40.2028 4.6727 L 40.1146 18 L 41.8811 18 L 41.442 0.0229 L 40.5179 0.0229 L 40.5162 0 Z" style="fill:#000000;stroke:none"/><path d="M 52.5456 0.6712 L 52.1388 1.8915 L 46.1184 1.8915 L 45.7117 0.6712 ZM 50.1456 9.0305 L 50.3286 16.1085 L 47.9286 16.1085 L 48.1117 9.0305 ZM 52.1184 2.7254 L 52.5659 16.1085 L 50.9184 16.1085 L 50.6744 8.5017 L 47.5828 8.5017 L 47.3388 16.1085 L 45.6913 16.1085 L 46.1388 2.7254 ZM 52.6879 16.7593 Q 53.0947 17.0237 53.1964 17.4915 L 45.0608 17.4915 Q 45.1625 17.0237 45.5896 16.7593 ZM 44.3286 0 Q 43.8811 0 43.8811 0.3254 Q 43.8811 0.6712 44.3286 0.6712 L 44.7354 0.6712 Q 45.2642 1.5458 45.4066 2.7051 L 44.9795 15.661 Q 44.9184 16.2712 44.5015 16.8508 Q 44.0845 17.4305 44.1049 18 L 54.1523 18 Q 54.1727 17.4305 53.7557 16.8508 Q 53.3388 16.2712 53.2778 15.661 L 52.8506 2.7051 Q 52.993 1.5458 53.5218 0.6712 L 53.9286 0.6712 Q 54.3964 0.6712 54.3964 0.3254 Q 54.3964 0 53.9286 0 Z" style="fill:#000000;stroke:none"/></svg>