<svg xmlns="http://www.w3.org/2000/svg" xmlns:xlink="http://www.w3.org/1999/xlink" viewBox="0 0 27.15403175354004 18.0"><path d="M 3.1538 11.0712 C 3.1502 11.0712 3.1468 11.0713 3.1437 11.0716 C 2.6795 11.1035 2.7309 11.1491 2.4881 11.2102 L 2.1707 11.759 C 2.4115 11.898 2.6407 11.9765 2.8919 11.9765 C 3.0613 11.9765 3.2406 11.9408 3.4402 11.8639 C 3.6471 11.7843 3.9183 11.7683 4.1684 11.7683 C 4.3367 11.7683 4.4954 11.7755 4.6185 11.7755 C 4.7328 11.7755 4.8164 11.7693 4.8484 11.7452 C 4.9497 11.6691 3.4226 11.0712 3.1538 11.0712 ZM 6.1947 7.553 C 8.8412 7.553 11.6362 9.7486 10.5617 13.9386 C 10.3158 14.8939 10.0424 15.4639 9.6145 15.6485 C 9.5355 15.6967 9.4514 15.7183 9.3642 15.7183 C 8.603 15.7183 7.5981 14.0727 7.5379 14.0554 C 7.3495 14.0015 8.7702 12.8996 8.552 11.882 C 8.5053 11.6641 8.3425 10.883 7.2734 10.883 C 7.2069 10.883 7.1369 10.8861 7.0632 10.8924 C 6.6102 10.9316 6.4712 11.2811 6.3232 11.2811 C 6.2391 11.2811 6.152 11.1681 6.0026 10.8207 C 5.6573 10.0179 3.1859 9.708 2.9306 9.5981 C 2.7737 9.5306 2.6818 9.4528 2.8666 9.1833 C 3.6173 8.0884 4.8879 7.553 6.1947 7.553 ZM 2.571 10.2896 C 2.8415 10.2896 5.1188 10.8856 5.2261 10.9365 C 5.354 10.9662 5.7436 12.1776 6.1816 12.2427 C 6.2512 12.2531 6.3159 12.2578 6.3763 12.2578 C 6.9902 12.2578 7.155 11.7712 7.3845 11.7712 C 7.3995 11.7712 7.4148 11.7732 7.4305 11.7777 C 8.4015 12.0515 7.2586 13.0707 6.4531 13.8271 C 6.0029 14.2499 9.0914 17.0653 9.0914 17.0653 L 5.8792 17.1375 L 4.9843 15.8725 C 4.9098 15.7672 4.6519 15.6745 4.2726 15.6745 C 3.9373 15.6745 3.5073 15.7469 3.0253 15.9471 C 2.7759 16.0507 2.5753 16.0936 2.4141 16.0936 C 1.6441 16.0936 1.772 15.1169 1.772 15.1169 C 1.6681 14.9936 1.5863 14.8892 1.5227 14.8007 L 1.5227 14.8007 C 1.5352 14.801 1.5478 14.8011 1.5605 14.8011 C 2.0048 14.8011 2.6491 14.6538 2.7609 14.516 C 2.906 14.4448 2.5877 14.1591 2.3807 14.1591 C 2.3604 14.1591 2.3411 14.1619 2.3235 14.1679 C 2.0738 14.0564 1.7683 14.1002 1.5176 14.0177 C 1.6367 13.569 0.9684 13.1209 1.0114 13.025 L 2.55 10.2919 C 2.5544 10.2904 2.5614 10.2896 2.571 10.2896 ZM 6.0774 6.8229 C 5.0107 6.8229 3.7742 7.0664 2.8643 7.9611 C 2.3408 8.4758 2.2672 9.0044 1.666 10.2327 C 1.2313 11.1209 -0.0853 12.8809 0.0001 13.1478 C 0.2209 13.8376 0.8006 13.3705 0.7415 14.4599 C 0.6934 15.3484 1.1395 14.7494 1.2325 15.8721 C 1.2598 16.2017 0.9993 17.1363 0.9637 17.2131 C 1.0478 17.6515 1.4424 17.805 1.7818 17.821 C 1.7844 17.8212 1.7871 17.8212 1.7897 17.8212 C 2.1733 17.8212 3.0486 16.5523 3.2385 16.469 C 3.3747 16.4092 3.7238 16.3642 3.9588 16.3642 C 4.0565 16.3642 4.1345 16.372 4.1693 16.3897 C 4.3907 16.5027 5.0522 17.9328 5.3171 18 L 9.2852 17.9603 C 9.5304 17.9578 9.6871 17.5464 10.1572 16.8315 C 11.0834 15.4234 11.5556 13.7256 11.5726 12.3587 C 11.6129 9.0962 10.043 7.9371 8.3203 7.1637 C 8.2149 7.1163 7.2484 6.8229 6.0774 6.8229 Z" style="fill:#254048;stroke:none"/><path d="M 19.0531 5.3647 L 19.0531 6.5116 Q 20.7004 6.5116 21.8368 7.012 Q 22.9732 7.5125 23.849 8.3466 Q 24.7248 9.1806 25.955 11.2033 Q 26.8198 12.625 27.0613 12.625 Q 27.1633 12.625 27.154 12.371 Q 27.1228 11.5161 26.3095 9.9626 Q 25.4963 8.4091 24.4746 7.4395 Q 23.4528 6.4699 22.16 5.9173 Q 20.8672 5.3647 19.0531 5.3647 ZM 19.4075 12.2876 Q 19.0322 12.2876 18.8028 12.5378 Q 18.5735 12.788 18.5735 13.1008 Q 18.5735 13.3719 18.8028 13.6325 Q 19.0322 13.8932 19.3867 13.8932 Q 19.7829 13.8932 20.0018 13.6534 Q 20.2208 13.4136 20.2208 13.1008 Q 20.2208 12.7672 19.9601 12.5274 Q 19.6995 12.2876 19.4075 12.2876 ZM 19.4075 12.0999 Q 19.7829 12.0999 20.1061 12.3918 Q 20.4293 12.6838 20.4293 13.1008 Q 20.4293 13.4761 20.1478 13.7889 Q 19.8663 14.1017 19.3867 14.1017 Q 18.9488 14.1017 18.6673 13.7681 Q 18.3858 13.4344 18.3858 13.1008 Q 18.3858 12.7046 18.6673 12.4023 Q 18.9488 12.0999 19.4075 12.0999 ZM 19.4075 6.8661 Q 19.0114 6.8661 18.9488 7.6793 L 18.9488 11.245 Q 18.9696 11.662 18.7194 12.0165 Q 18.5005 12.0999 18.292 12.0999 Q 18.0834 12.0999 17.8853 12.0165 L 14.5073 10.9114 Q 14.2258 10.8464 14.0293 10.8464 Q 13.658 10.8464 13.5899 11.0782 Q 13.4647 11.4535 14.2363 11.7663 L 17.6351 12.8506 Q 18.0313 12.9757 18.2815 13.351 Q 18.2815 13.8098 18.0105 14.1434 L 15.9253 17.021 Q 15.4874 17.7299 15.8002 17.9385 Q 15.8841 18 15.9845 18 Q 16.2584 18 16.6551 17.5423 L 18.7403 14.6647 Q 18.9696 14.3102 19.4075 14.1643 Q 19.8246 14.2894 20.0748 14.6647 L 22.16 17.5423 Q 22.5567 18 22.8194 18 Q 22.9157 18 22.9941 17.9385 Q 23.3069 17.7091 22.8898 17.0001 L 20.7838 14.1226 Q 20.5127 13.7889 20.5335 13.351 Q 20.7838 12.9757 21.2008 12.8506 L 24.5788 11.7663 Q 25.3503 11.4535 25.2252 11.099 Q 25.1418 10.8488 24.7619 10.8488 Q 24.5719 10.8488 24.3077 10.9114 L 20.9089 12.0165 Q 20.7108 12.0895 20.5075 12.0895 Q 20.3042 12.0895 20.0957 12.0165 Q 19.8246 11.662 19.8454 11.245 L 19.8454 7.6793 Q 19.7829 6.8661 19.4075 6.8661 Z" style="fill:#254048;stroke:none"/></svg>