<svg xmlns="http://www.w3.org/2000/svg" xmlns:xlink="http://www.w3.org/1999/xlink" viewBox="0 0 20.573699951171875 18.0"><path d="M 3.1813 2.471 C 2.9415 2.471 2.8216 2.5578 2.8216 2.7313 C 2.8558 2.8568 2.9658 2.9196 3.1516 2.9196 C 3.2108 2.9196 3.2776 2.9133 3.352 2.9006 C 3.6605 2.8479 3.89 2.7614 4.0405 2.641 C 3.9351 2.5808 3.7057 2.5281 3.352 2.483 C 3.2896 2.475 3.2327 2.471 3.1813 2.471 ZM 4.8305 0.5869 C 5.2067 1.3092 5.4024 1.8735 5.4174 2.2798 L 5.4174 2.4153 C 5.4174 2.6259 5.3045 2.8893 5.0788 3.2053 C 5.3798 3.8223 5.6996 4.3715 6.0381 4.8531 C 6.3767 5.3346 6.847 5.8312 7.4489 6.3429 C 8.0509 6.8545 8.7431 7.1103 9.5256 7.1103 C 10.3081 7.1103 11.2449 6.9298 12.3359 6.5686 C 13.2546 6.2645 13.9813 6.1124 14.5158 6.1124 C 14.6161 6.1124 14.7096 6.1177 14.7963 6.1284 C 15.3455 6.1962 15.861 6.6213 16.3425 7.4038 C 16.824 8.1863 17.3056 9.2171 17.7871 10.4962 C 18.2687 11.7753 18.7728 13.0996 19.2995 14.469 C 19.8262 15.8384 20.0444 16.8391 19.9541 17.4711 C 19.1866 16.4328 18.0655 13.7015 16.5908 9.2773 C 16.5908 8.6152 16.4253 8.2089 16.0942 8.0584 L 16.0942 8.4873 C 16.3651 8.7581 16.3199 9.0215 15.9588 9.2773 L 10.3608 9.2773 C 10.5762 9.0745 10.861 8.9732 11.2152 8.9732 C 11.2816 8.9732 11.3504 8.9767 11.4217 8.9839 C 11.8731 9.029 12.2794 9.0516 12.6406 9.0516 C 13.0168 9.0516 13.5209 9.0441 14.153 9.029 L 14.153 8.9613 C 13.5209 8.886 13.1109 8.6829 12.9228 8.3518 C 12.7347 8.0208 12.8287 7.5844 13.2049 7.0426 L 13.2049 7.0426 C 11.2473 7.9926 9.8405 8.4676 8.9843 8.4676 C 8.9454 8.4676 8.9076 8.4667 8.871 8.4647 C 8.0283 8.4195 7.2909 8.3782 6.6589 8.3405 C 6.6249 8.3385 6.5912 8.3375 6.5577 8.3375 C 5.968 8.3375 5.4525 8.6508 5.0111 9.2773 L 0.632 9.2999 C 0.62 9.035 0.856 8.9026 1.3399 8.9026 C 1.4609 8.9026 1.5974 8.9109 1.7494 8.9274 C 1.9637 8.9508 2.1813 8.9624 2.4023 8.9624 C 2.9646 8.9624 3.5483 8.8868 4.1533 8.7356 C 4.3038 8.5098 4.5183 8.0358 4.7967 7.3135 C 5.0751 6.5912 5.1089 6.1134 4.8982 5.8801 C 4.6876 5.6469 4.5446 5.3083 4.4694 4.8644 C 4.3941 4.4205 4.2925 4.1232 4.1646 3.9728 C 4.058 3.8474 3.9175 3.7847 3.743 3.7847 C 3.7081 3.7847 3.6718 3.7872 3.6342 3.7922 C 3.5931 3.7977 3.5512 3.8004 3.5084 3.8004 C 3.3159 3.8004 3.1058 3.745 2.878 3.6342 C 2.7306 3.5625 2.5516 3.5266 2.3409 3.5266 C 2.1537 3.5266 1.9415 3.5549 1.7042 3.6116 C 1.3681 3.6919 1.1341 3.732 1.002 3.732 C 0.9359 3.732 0.8954 3.722 0.8803 3.7019 C 0.8352 3.6417 0.7764 3.6448 0.8968 3.6147 C 1.0172 3.5846 1.951 3.3947 2.0638 3.3947 C 2.0762 3.3947 2.0885 3.3948 2.1005 3.3948 C 2.1977 3.3948 2.2771 3.3883 2.267 3.2705 C 2.2623 3.2161 2.2474 3.1974 2.2187 3.1974 C 2.1821 3.1974 2.1232 3.2278 2.0346 3.2531 C 1.9021 3.2909 1.1373 3.5063 0.8498 3.5063 C 0.7946 3.5063 0.757 3.4984 0.7449 3.4797 C 0.6202 3.4626 0.5068 3.1289 0.632 3.0924 C 1.249 2.9269 1.7456 2.7915 2.1218 2.6861 C 2.498 2.5808 2.7388 2.4604 2.8441 2.325 C 2.9495 2.1895 3.4235 2.1218 4.2662 2.1218 C 4.6274 2.1218 4.8004 1.7682 4.7854 1.0609 L 4.7854 1.0609 C 5.1766 1.9939 5.1691 2.5507 4.7628 2.7313 L 4.8982 2.9344 C 5.139 2.6786 5.2594 2.4755 5.2594 2.325 C 5.2443 1.8886 5.0863 1.3092 4.7854 0.5869 ZM 4.8305 0 L 4.5145 0.0226 L 4.5145 1.0609 C 4.5145 1.4221 4.4393 1.6403 4.2888 1.7155 C 3.4009 1.7155 2.8705 1.8058 2.6974 1.9864 C 2.5244 2.167 2.2949 2.3062 2.009 2.404 C 1.723 2.5018 1.313 2.6071 0.7788 2.72 C 0.2445 2.8329 0.0376 2.9946 0.158 3.2053 C 0.1881 3.3106 0.301 3.4385 0.4966 3.589 C 0.5078 3.8797 0.6954 4.025 1.0595 4.025 C 1.1856 4.025 1.3327 4.0076 1.5011 3.9728 C 1.8032 3.9103 2.0628 3.879 2.28 3.879 C 2.5334 3.879 2.729 3.9215 2.8667 4.0066 C 3.0816 4.1393 3.2938 4.2057 3.5034 4.2057 C 3.5433 4.2057 3.5832 4.2033 3.6229 4.1985 C 3.6384 4.1966 3.6536 4.1957 3.6684 4.1957 C 3.8906 4.1957 4.0334 4.4073 4.0969 4.8305 C 4.1646 5.282 4.2775 5.6582 4.4355 5.9591 C 4.5935 6.2601 4.364 6.99 3.747 8.1487 C 3.2719 8.3558 2.7771 8.4593 2.2626 8.4593 C 2.1415 8.4593 2.0193 8.4536 1.8961 8.4421 C 1.4647 8.402 1.137 8.3819 0.9129 8.3819 C 0.8009 8.3819 0.7148 8.3869 0.6546 8.397 C 0.2182 8.6678 0 9.1042 0 9.7062 L 5.3723 9.7062 C 5.8255 9.1397 6.2454 8.8564 6.6319 8.8564 C 6.6561 8.8564 6.6801 8.8575 6.704 8.8597 C 7.1103 8.8973 7.6257 8.9274 8.2503 8.95 C 8.3439 8.9534 8.4368 8.9551 8.5287 8.9551 C 9.05 8.9551 9.544 8.9007 10.0109 8.792 C 10.5602 8.6641 11.369 8.3594 12.4375 7.8778 L 12.4375 7.8778 C 12.3773 8.1938 12.3998 8.4271 12.5052 8.5776 C 12.3222 8.6546 12.0606 8.6931 11.7204 8.6931 C 11.5291 8.6931 11.3129 8.6809 11.0718 8.6566 C 10.9791 8.6472 10.8915 8.6425 10.809 8.6425 C 10.2958 8.6425 9.9809 8.824 9.8642 9.187 L 9.8642 9.7062 L 16.0265 9.7062 C 17.7143 15.2354 19.0294 18 19.9716 18 C 20.0038 18 20.0356 17.9968 20.067 17.9903 C 20.8645 17.8248 20.7216 16.2522 19.6381 13.2726 C 18.5546 10.2931 17.6592 8.2766 16.952 7.2232 C 16.2447 6.1698 15.5713 5.6017 14.9317 5.519 C 14.8145 5.5038 14.6904 5.4962 14.5595 5.4962 C 13.9763 5.4962 13.2577 5.6468 12.4036 5.9479 C 11.3577 6.3165 10.4135 6.5009 9.5707 6.5009 C 8.7431 6.5009 8.0283 6.1849 7.4264 5.5528 C 6.8244 4.9208 6.2526 4.1458 5.7108 3.2279 C 5.756 2.8517 5.7786 2.5507 5.7786 2.325 C 5.7786 1.6929 5.4625 0.9179 4.8305 0 Z" style="fill:#000000;stroke:none"/></svg>