<svg xmlns="http://www.w3.org/2000/svg" xmlns:xlink="http://www.w3.org/1999/xlink" viewBox="0 0 50.876869201660156 18.0"><path d="M 7.9075 15.5085 C 7.7691 15.5085 7.63 15.5256 7.4903 15.5599 C 7.2108 15.6285 6.9076 15.784 6.5807 16.0266 L 0 16.0266 L 0 17.4819 L 6.5807 17.4819 C 6.9076 17.7245 7.2108 17.88 7.4903 17.9486 C 7.63 17.9829 7.7691 18 7.9075 18 C 8.0459 18 8.1837 17.9829 8.3208 17.9486 C 8.595 17.88 8.8692 17.7245 9.1434 17.4819 L 9.3965 17.4819 C 9.6601 17.7245 9.9317 17.88 10.2112 17.9486 C 10.3509 17.9829 10.4906 18 10.6304 18 C 10.7701 18 10.9098 17.9829 11.0496 17.9486 C 11.3291 17.88 11.627 17.7245 11.9434 17.4819 L 18.5873 17.4819 L 18.5873 16.0266 L 11.9434 16.0266 C 11.627 15.784 11.3291 15.6285 11.0496 15.5599 C 10.9098 15.5256 10.7701 15.5085 10.6304 15.5085 C 10.4906 15.5085 10.3509 15.5256 10.2112 15.5599 C 9.9317 15.6285 9.6601 15.784 9.3965 16.0266 L 9.1434 16.0266 C 8.8692 15.784 8.595 15.6285 8.3208 15.5599 C 8.1837 15.5256 8.0459 15.5085 7.9075 15.5085 Z" style="fill:#000000;stroke:none"/><path d="M 24.9534 14.1718 C 26.0274 14.1718 27.3718 14.7235 28.0223 15.374 C 28.5914 15.9432 28.6658 16.6977 28.6867 17.3989 L 21.2517 17.3989 C 21.2726 16.6977 21.347 15.9432 21.9161 15.374 C 22.5667 14.7235 23.8794 14.1718 24.9534 14.1718 ZM 24.9534 13.5707 C 23.6793 13.5707 22.3083 14.1593 21.5049 14.9627 C 20.6807 15.7868 20.5873 16.8718 20.5873 17.6836 L 20.5873 18 L 29.3194 18 L 29.3194 17.6836 C 29.3194 16.8718 29.2577 15.7868 28.4336 14.9627 C 27.6301 14.1593 26.2275 13.5707 24.9534 13.5707 Z" style="fill:#000000;stroke:none"/><path d="M 41.0982 10.8993 C 41.4132 10.9678 41.6117 11.0564 41.6939 11.5699 C 41.7761 12.0835 41.9165 12.9601 42.1151 14.1995 C 42.3136 15.439 43.4401 16.0861 45.4945 16.1409 C 47.5488 16.0861 48.6719 15.4355 48.8636 14.1892 C 49.0553 12.9429 49.2094 12.0664 49.3258 11.5597 C 49.4374 11.0742 49.5736 10.9205 50.0906 10.9205 C 50.1133 10.9205 50.1367 10.9208 50.1608 10.9213 L 50.1608 17.325 L 32.0355 17.325 L 32.0355 10.9213 C 32.0597 10.9208 32.083 10.9205 32.1057 10.9205 C 32.6227 10.9205 32.759 11.0742 32.8705 11.5597 C 32.9869 12.0664 33.141 12.9429 33.3327 14.1892 C 33.5244 15.4355 34.6475 16.0861 36.7018 16.1409 C 38.7562 16.0861 39.8827 15.439 40.0812 14.1995 C 40.2798 12.9601 40.4202 12.0835 40.5024 11.5699 C 40.5846 11.0564 40.7325 10.9678 41.0475 10.8993 ZM 50.6305 10.2447 C 49.5388 10.2447 48.7567 10.2781 48.6714 11.2515 C 48.6119 11.93 48.4043 12.8265 48.2194 13.9633 C 48.0345 15.1 47.2612 15.4659 45.4945 15.4659 C 45.4626 15.4661 45.4311 15.4663 45.3999 15.4663 C 43.7 15.4663 42.9511 15.0965 42.7695 13.9735 C 42.5846 12.8299 42.3551 11.9223 42.3073 11.2618 C 42.2681 10.7216 41.6966 10.2654 41.1488 10.2654 L 40.9463 10.2654 C 40.3985 10.2654 39.9219 10.7421 39.889 11.2618 C 39.8491 11.8926 39.6117 12.8299 39.4268 13.9735 C 39.2453 15.0965 38.4963 15.4663 36.7964 15.4663 C 36.7652 15.4663 36.7337 15.4661 36.7018 15.4659 C 34.9351 15.4659 34.1618 15.1 33.9769 13.9633 C 33.792 12.8265 33.6098 11.9272 33.5146 11.2515 C 33.3743 10.2545 32.5247 10.2449 31.3194 10.2449 L 31.3194 18 L 50.8769 18 L 50.8769 10.2449 C 50.7932 10.2449 50.711 10.2447 50.6305 10.2447 Z" style="fill:#000000;stroke:none"/></svg>