<svg xmlns="http://www.w3.org/2000/svg" xmlns:xlink="http://www.w3.org/1999/xlink" viewBox="0 0 5.2595624923706055 18.0"><path d="M 2.6361 12.1158 C 2.1403 12.1158 1.6424 12.4676 1.1423 13.1711 L 1.1423 13.9084 C 1.6424 13.1965 2.1403 12.8405 2.6361 12.8405 C 3.132 12.8405 3.6257 13.1965 4.1172 13.9084 L 4.1172 13.1711 C 3.6257 12.4676 3.132 12.1158 2.6361 12.1158 ZM 2.6361 13.6414 C 2.4624 13.6414 2.2865 13.6881 2.1085 13.7813 C 1.7526 13.9678 1.5746 14.3831 1.5746 15.0272 L 1.8543 16.7308 L 2.1318 16.6291 L 2.0301 15.6374 C 1.9623 14.9255 2.064 14.5589 2.3352 14.3385 C 2.4708 14.2284 2.5556 14.1733 2.6393 14.1733 C 2.723 14.1733 2.8057 14.2284 2.937 14.3385 C 3.1998 14.5589 3.2972 14.917 3.2294 15.612 L 3.1023 16.6291 L 3.4307 16.7054 L 3.685 15.0272 C 3.668 14.3831 3.4901 13.9678 3.151 13.7813 C 2.9815 13.6881 2.8099 13.6414 2.6361 13.6414 ZM 2.9985 11.2895 C 3.8121 11.5268 4.2529 11.8573 4.3207 12.2811 C 4.3885 12.7049 4.4181 13.2812 4.4097 14.0101 C 4.4012 14.739 4.2783 15.4383 4.041 16.1078 C 3.8036 16.7774 3.3375 17.1631 2.6425 17.2648 C 1.9305 17.1631 1.4602 16.7774 1.2313 16.1078 C 1.0025 15.4383 0.8796 14.7433 0.8626 14.0229 C 0.8457 13.3024 0.8711 12.7261 0.9389 12.2938 C 1.0067 11.8616 1.4474 11.5268 2.2611 11.2895 ZM 1.9348 0 L 1.9348 1.2205 L 0.9686 1.2205 L 0.9686 1.9833 L 1.9348 1.9833 L 1.5026 10.7809 C 0.672 11.12 0.21 11.5734 0.1168 12.1413 C 0.0236 12.7091 -0.0146 13.2897 0.0024 13.883 C 0.0193 14.4763 0.0871 15.0992 0.2058 15.7519 C 0.3245 16.4045 0.6338 17.0253 1.1339 17.4152 C 1.6339 17.8051 2.2653 18 2.6298 18 C 2.9942 18 3.6256 17.8008 4.1257 17.4025 C 4.6257 17.0041 4.9351 16.3875 5.0538 15.7519 C 5.1724 15.1162 5.2402 14.4975 5.2572 13.8957 C 5.2741 13.2939 5.236 12.7091 5.1428 12.1413 C 5.0495 11.5734 4.5791 11.12 3.7316 10.7809 L 3.401 1.9833 L 4.291 1.9833 L 4.3164 1.2205 L 3.3247 1.2205 L 3.3247 0 Z" style="fill:#000000;stroke:none"/></svg>