<svg xmlns="http://www.w3.org/2000/svg" xmlns:xlink="http://www.w3.org/1999/xlink" viewBox="0 0 10.548383712768555 18.0"><path d="M 4.1696 1.517 Q 4.2039 1.517 4.2289 1.5597 Q 4.2954 1.6738 4.2764 1.8448 Q 4.2574 2.0159 4.2099 2.1014 Q 4.1927 2.1322 4.183 2.1322 Q 4.1658 2.1322 4.1718 2.0349 Q 4.1782 1.9335 4.1507 1.9335 Q 4.137 1.9335 4.1148 1.9589 Q 4.0895 1.9878 4.071 1.9878 Q 4.0411 1.9878 4.0293 1.9113 Q 4.0103 1.7878 4.0293 1.6358 Q 4.1124 1.517 4.1696 1.517 ZM 4.1166 2.2025 Q 4.2142 2.2025 4.1908 2.2725 Q 4.1695 2.3366 4.1267 2.3366 Q 4.1124 2.3366 4.0958 2.3295 Q 4.0293 2.301 4.0673 2.2059 Q 4.095 2.2025 4.1166 2.2025 ZM 4.1701 0.3962 Q 4.5792 0.3962 4.8371 0.714 Q 5.2457 1.2176 5.0081 1.9779 Q 4.8886 2.3604 4.8316 2.3604 Q 4.7753 2.3604 4.78 1.9874 Q 4.7895 1.2366 4.4379 0.999 Q 4.3392 0.9323 4.2246 0.9323 Q 3.9315 0.9323 3.5351 1.3697 Q 3.1702 1.4837 2.9695 1.4837 Q 2.6685 1.4837 2.7369 1.2271 Q 2.8509 0.7995 3.6397 0.5049 Q 3.9308 0.3962 4.1701 0.3962 ZM 4.1635 1.3344 Q 4.0917 1.3344 4.0103 1.4362 Q 3.8962 1.5787 3.9058 1.8163 Q 3.9153 2.0539 4.0293 2.0919 Q 3.9343 2.2249 3.9818 2.32 Q 4.0183 2.3931 4.1055 2.3931 Q 4.1316 2.3931 4.1623 2.3865 Q 4.2954 2.358 4.3619 2.0634 Q 4.4284 1.7688 4.3714 1.5882 Q 4.3144 1.4077 4.2194 1.3507 Q 4.1922 1.3344 4.1635 1.3344 ZM 3.3831 2.358 Q 3.269 2.529 3.098 2.6431 Q 3.25 2.453 3.041 2.434 Q 3.212 2.377 3.3831 2.358 ZM 2.8889 2.529 Q 2.9025 2.6648 3.0034 2.6648 Q 3.0437 2.6648 3.098 2.6431 L 3.098 2.6431 Q 3.0093 2.7191 2.9122 2.7191 Q 2.8636 2.7191 2.8129 2.7001 Q 2.8319 2.548 2.8889 2.529 ZM 3.7252 2.0729 L 3.4781 2.2439 Q 3.041 2.263 2.8604 2.4055 Q 2.6799 2.548 2.7179 2.8331 Q 2.8022 2.848 2.8774 2.848 Q 3.0906 2.848 3.231 2.7286 Q 3.4211 2.567 3.5161 2.301 L 3.7822 2.1489 L 3.7252 2.0729 ZM 4.211 1.2707 Q 4.4153 1.2707 4.4664 1.5692 Q 4.5235 1.9018 4.4379 2.2154 Q 4.3524 2.529 4.533 2.7096 Q 4.66 2.8367 4.8106 2.8367 Q 4.874 2.8367 4.9416 2.8141 Q 5.2225 3.4752 5.64 3.4752 Q 5.7027 3.4752 5.7684 3.4603 Q 5.9057 3.4292 6.0678 3.4292 Q 6.5001 3.4292 7.1083 3.6504 Q 7.2413 4.8098 8.0586 6.9385 Q 7.3554 7.6607 6.9182 7.6607 Q 6.7472 7.6607 6.5951 7.4136 Q 6.0629 6.4633 4.6755 5.494 Q 4.3714 5.3039 4.5044 4.7337 L 4.6755 3.8595 Q 4.4119 3.4202 4.1525 3.4202 Q 4.0191 3.4202 3.8867 3.5364 Q 3.6605 3.735 3.5016 3.735 Q 3.3868 3.735 3.3071 3.6314 Q 3.4401 3.3463 3.3071 3.3368 Q 3.2968 3.3361 3.2863 3.3361 Q 3.1594 3.3361 2.984 3.4413 Q 3.0165 3.2458 2.7978 3.2458 Q 2.7613 3.2458 2.7179 3.2513 L 2.6799 2.548 Q 2.7749 2.2249 3.5161 2.1109 Q 3.6219 2.0051 3.4655 2.0051 Q 3.3971 2.0051 3.2786 2.0254 Q 2.8889 2.0919 2.6228 2.301 Q 2.5848 1.9969 2.7179 1.9113 Q 2.8509 1.8258 3.5922 1.6928 Q 3.6342 1.7288 3.6724 1.7288 Q 3.7552 1.7288 3.8202 1.5597 Q 3.9153 1.3126 4.1623 1.2746 Q 4.1877 1.2707 4.211 1.2707 ZM 8.0396 7.5657 Q 8.7048 7.5657 8.8758 8.3069 L 8.8758 11.69 L 6.4241 11.728 Q 6.6901 10.0364 6.9182 8.4779 Q 6.9182 8.0218 8.0396 7.5657 ZM 4.2972 0 Q 4.1347 0 3.9533 0.0392 Q 3.25 0.1913 2.7274 0.714 Q 2.2047 1.2366 2.2617 2.282 Q 2.3568 2.6241 2.3377 3.4223 Q 2.4117 3.6293 2.5028 3.6293 Q 2.5289 3.6293 2.5563 3.6124 Q 2.6799 3.5364 2.7749 3.5364 Q 2.7369 3.6314 2.7939 3.6979 Q 2.8302 3.7402 2.8665 3.7402 Q 2.8872 3.7402 2.9079 3.7264 Q 2.9383 3.7036 2.949 3.7036 Q 2.965 3.7036 2.9364 3.7549 Q 2.8889 3.8405 3.0315 3.8975 Q 3.174 3.9545 3.2786 4.097 Q 3.3413 4.1826 3.4382 4.1826 Q 3.5028 4.1826 3.5826 4.1446 Q 3.7822 4.0495 4.0103 3.8405 L 4.2384 4.1446 Q 3.9723 4.5057 3.9533 5.0949 Q 3.4021 6.2542 3.003 7.4896 Q 2.1857 6.9385 1.4825 6.3493 Q 1.3494 5.8931 1.1214 5.418 L 1.1214 4.3916 L 0.5702 4.3916 L 0.5702 5.627 Q 0.4164 5.5 0.3002 5.5 Q 0.0862 5.5 0 5.9311 Q -0.019 6.7104 0.5702 6.7674 L 0.5702 18 L 1.1214 18 L 1.1214 6.8434 Q 1.7296 7.4896 2.2902 7.9458 Q 2.8509 8.4019 3.174 8.4209 Q 4.1813 7.0715 4.6185 5.8551 Q 4.9226 6.2162 5.6068 6.7769 Q 6.291 7.3376 6.177 7.7747 Q 5.8349 7.8697 5.8539 8.1358 Q 5.8695 8.355 6.1172 8.355 Q 6.1703 8.355 6.234 8.3449 L 6.234 8.3449 L 5.8729 9.3332 L 6.348 9.2762 L 5.9869 11.3289 Q 5.3217 14.0277 4.9796 15.4342 Q 4.8656 16.2514 4.3999 16.8311 Q 3.9343 17.4108 3.2405 17.4963 Q 2.5468 17.5819 2.5088 18 Q 3.3831 18 3.7822 17.943 Q 4.1813 17.886 4.7705 17.886 Q 5.0366 17.6579 4.9796 17.0117 Q 6.101 15.1111 6.4811 13.7046 Q 6.5381 12.3932 7.0323 12.2412 L 8.7048 12.2412 Q 8.8758 13.3055 9.427 16.0804 Q 9.427 16.6886 8.9709 17.0687 Q 8.1346 17.2778 7.9065 17.4108 Q 7.6785 17.5439 7.6785 17.7149 Q 7.6785 17.8549 8.0474 17.8549 Q 8.1294 17.8549 8.2296 17.8479 Q 9.1609 17.7529 9.8642 17.7149 Q 10.4343 17.4488 10.0352 16.8026 Q 10.1302 13.8377 9.8832 13.1629 Q 9.6361 12.4882 9.6361 12.1841 Q 9.427 9.9034 9.3225 8.7345 Q 9.218 7.5657 8.4007 6.7294 Q 7.8495 5.3039 7.7545 4.5057 L 7.7545 4.5057 Q 9.256 6.0072 9.7881 8.516 Q 9.6741 9.5993 10.0162 10.6636 Q 10.1683 10.6066 10.2633 10.3405 Q 10.4724 9.9034 10.5104 9.7514 Q 10.5484 9.5993 10.5484 9.1622 Q 10.4153 8.8581 10.2633 8.611 Q 10.0352 6.3493 9.5411 5.7601 Q 8.1203 3.3061 7.2728 3.3061 Q 7.2473 3.3061 7.2223 3.3083 Q 6.696 3.089 6.2484 3.089 Q 6.1141 3.089 5.9869 3.1087 Q 5.9272 3.118 5.8719 3.118 Q 5.4172 3.118 5.2647 2.491 Q 5.5498 1.8828 5.5213 1.3222 Q 5.4928 0.7615 5.0746 0.3243 Q 4.7644 0 4.2972 0 Z" style="fill:#000000;stroke:none"/></svg>