<svg xmlns="http://www.w3.org/2000/svg" xmlns:xlink="http://www.w3.org/1999/xlink" viewBox="0 0 48.963584899902344 18.0"><path d="M 1.0004 4.3919 Q 0.8802 4.3919 0.7125 4.5386 Q 0.0509 5.4293 0 7.0833 Q 0.2036 8.3811 0.9161 10.7477 Q 0.6616 12.6562 0.5344 15.9897 Q 0.4326 17.1094 1.1451 17.4402 Q 3.2572 18 6.4889 18 Q 9.7461 18 11.8328 17.4402 Q 12.5707 17.1094 12.4689 15.9897 Q 12.3417 12.6562 12.0872 10.7477 Q 12.7997 8.3811 13.0033 7.0833 Q 12.9524 5.4293 12.2908 4.5386 Q 12.1232 4.3919 12.003 4.3919 Q 11.8313 4.3919 11.7564 4.6913 Q 11.9346 5.2003 12.0872 5.6837 Q 12.2908 6.2945 12.2399 6.8289 Q 12.189 7.694 12.0745 8.2411 Q 11.96 8.7883 11.6037 8.7883 Q 11.5848 8.7898 11.5663 8.7898 Q 10.9676 8.7898 10.9676 7.1851 Q 10.9676 6.5998 11.1203 5.7601 Q 10.9892 5.5372 10.8378 5.5372 Q 10.6954 5.5372 10.535 5.7346 Q 10.4586 6.3454 10.4332 7.0833 Q 10.3314 8.203 10.9676 10.2387 Q 10.7386 13.1142 10.7386 15.9897 Q 9.0082 16.2696 6.4889 16.346 Q 3.9951 16.2696 2.2648 15.9897 Q 2.2648 13.1142 2.0357 10.2387 Q 2.6719 8.203 2.5701 7.0833 Q 2.5447 6.3454 2.4683 5.7346 Q 2.3079 5.5372 2.1655 5.5372 Q 2.0142 5.5372 1.8831 5.7601 Q 2.0357 6.5998 2.0357 7.1851 Q 2.0357 8.7898 1.437 8.7898 Q 1.4186 8.7898 1.3996 8.7883 Q 1.0433 8.7883 0.9288 8.2411 Q 0.8143 7.694 0.7634 6.8289 Q 0.7125 6.2945 0.9161 5.6837 Q 1.0688 5.2003 1.2469 4.6913 Q 1.1721 4.3919 1.0004 4.3919 Z" style="fill:#254048;stroke:none"/><path d="M 16.7485 0 C 15.8187 0 15.0033 0.684 15.0033 1.562 L 15.0033 18 L 16.1393 18 L 16.1393 1.562 C 16.1393 1.1313 16.5178 0.992 16.7557 0.992 C 17.0052 0.992 17.3895 1.167 17.3895 1.6946 L 17.3895 12.4986 L 18.5255 12.4986 L 18.5255 1.6946 C 18.5255 0.8155 17.6549 0 16.7485 0 Z" style="fill:#254048;stroke:none"/><path d="M 23.6996 0.9844 Q 23.9608 0.9844 24.0009 1.2857 L 24.4429 5.3036 Q 24.7844 8.0357 24.8447 10.5469 Q 24.8447 12.2746 24.5534 13.2991 Q 24.2621 14.3237 23.6393 14.3237 Q 23.0166 14.3237 22.7855 13.2991 Q 22.5545 12.2746 22.5746 10.5469 Q 22.6148 8.0357 22.9563 5.3036 L 23.3983 1.2857 Q 23.4384 0.9844 23.6996 0.9844 ZM 26.1706 15.9308 L 26.1706 17.3973 L 21.2286 17.3973 L 21.2286 15.9308 ZM 23.6996 0 Q 23.0969 0 22.9764 0.3817 L 22.2532 5.3036 Q 21.9317 8.0357 21.7911 10.5469 Q 21.7911 13.0179 22.2532 14.1429 Q 22.6535 15.1175 23.4458 15.2478 L 20.5255 15.2478 L 20.5255 18 L 26.8737 18 L 26.8737 15.2478 L 23.9534 15.2478 Q 24.7457 15.1175 25.146 14.1429 Q 25.6081 13.0179 25.6081 10.5469 Q 25.4674 8.0357 25.146 5.3036 L 24.4228 0.3817 Q 24.3023 0 23.6996 0 Z" style="fill:#254048;stroke:none"/><path d="M 35.1648 8.3581 L 35.1648 8.3581 C 36.5244 9.8859 37.6502 11.6293 38.6535 13.4001 C 38.8643 13.6601 38.6271 13.8982 38.4531 14.1452 C 37.792 12.0459 36.2705 10.4262 35.1648 8.3581 ZM 33.8488 0.6475 C 33.9622 1.1762 33.7534 1.7865 33.3523 1.9665 L 33.4805 2.2402 C 33.9816 2.0021 34.4631 1.2891 34.5348 0.649 C 35.2189 0.6897 35.406 1.205 35.5131 1.8028 C 35.6414 2.2113 35.5112 3.2029 36.029 3.3742 C 37.5581 3.9663 38.7271 4.6511 39.7762 5.6861 C 41.5867 7.9502 43.4787 10.1431 45.2891 12.4097 C 45.9926 13.2916 46.6359 14.0996 47.1582 14.7092 C 44.4088 12.654 41.3367 11.082 38.3228 9.4485 C 36.721 8.5782 35.1926 7.8664 35.1926 5.9502 C 35.1926 4.9198 37.0916 4.0563 37.0132 3.9222 C 37.0065 3.9106 36.9845 3.9048 36.9499 3.9048 C 36.5601 3.9048 34.5648 4.6448 34.5648 6.2053 C 34.5648 6.6374 34.6804 7.0385 34.8815 7.4122 C 34.8785 7.412 34.8755 7.4118 34.8724 7.4116 C 32.6839 6.252 33.0314 3.9061 33.1162 1.838 C 32.2068 1.7877 31.4576 1.2913 30.594 1.0849 C 31.2639 0.9982 31.9316 0.8864 32.6031 0.8171 L 32.6031 0.8171 C 32.4771 0.8423 32.3619 0.9156 32.2852 1.0179 C 32.2742 1.2384 32.5236 1.3355 32.7667 1.3355 C 33.0039 1.3355 33.2352 1.243 33.2128 1.0827 C 33.1056 0.9157 32.91 0.8072 32.7099 0.8072 C 32.7041 0.8072 32.6983 0.8073 32.6926 0.8075 C 33.0265 0.7596 33.4714 0.6886 33.8488 0.6475 ZM 37.6714 13.9505 C 37.8674 14.427 37.9691 14.9316 38.08 15.4318 C 38.3988 15.1736 38.708 14.9085 38.9696 14.5928 L 38.9696 14.5928 C 38.7991 15.5192 38.4811 16.4533 37.7099 16.4533 C 37.243 16.4533 37.0268 16.1379 37.3262 15.1815 C 37.4672 14.7311 37.5795 14.3002 37.6714 13.9505 ZM 36.8335 9.367 L 36.8335 9.367 C 39.9542 11.0295 43.0443 12.7076 45.9957 14.6586 C 46.6909 15.222 47.3102 15.85 47.7298 16.4369 C 47.4516 16.8692 46.9221 17.0177 46.4325 17.0504 C 43.9343 16.9633 42.9565 14.5549 41.6369 12.8342 L 40.919 11.9624 L 41.0428 13.0794 C 41.0514 13.2806 41.2574 14.2324 40.9503 14.2324 C 40.9241 14.2324 40.8943 14.2255 40.8602 14.2106 L 39.5977 12.6992 C 39.4627 12.7882 39.3356 12.8893 39.1963 12.9719 C 38.57 11.7045 37.6533 10.5246 36.8335 9.367 ZM 34.1402 0 C 33.4843 0 32.8123 0.1178 32.1751 0.177 C 31.4153 0.5479 30.6457 0.2653 29.8489 0.5548 C 29.2732 0.8129 29.1119 1.3368 28.8737 1.8606 C 29.2129 1.7477 29.5216 1.7018 29.8126 1.7018 C 30.7411 1.7018 31.4885 2.1693 32.4699 2.4184 C 32.4683 2.9109 32.391 3.4698 32.3543 4.0328 C 32.2021 5.5588 33.0061 6.8979 34.1686 7.8515 C 35.0013 9.7056 36.1534 11.1283 36.9945 12.575 C 36.8942 13.2247 36.2894 15.6775 35.9912 16.558 C 35.4072 16.6561 34.7837 16.7118 34.1706 16.7118 C 33.9232 16.7118 33.6774 16.7028 33.4367 16.6837 C 33.4181 16.6811 33.3994 16.6799 33.3807 16.6799 C 32.9077 16.6799 32.3878 17.4879 31.8781 17.9191 L 42.24 18 C 41.9758 17.0656 40.1346 16.5701 39.4803 16.5701 C 39.4427 16.5701 39.409 16.5717 39.3798 16.575 C 39.6108 15.9144 39.8987 15.2939 39.9807 14.3713 C 40.2699 14.63 40.5942 14.91 40.9991 14.939 C 41.494 14.9018 41.6948 14.5637 41.7576 14.1226 C 42.8788 15.977 44.1326 17.4913 46.4325 17.714 C 47.2273 17.6751 48.2177 17.3275 48.432 16.483 C 49.4862 16.4236 48.7131 15.3965 48.3219 14.994 C 45.4532 11.889 43.0854 8.3444 40.2509 5.2162 C 39.1592 4.1393 37.9266 3.4109 36.4001 2.8067 C 36.2865 2.5276 36.2492 2.1306 36.1753 1.6938 C 36.0947 1.2172 35.8404 0.4371 35.3755 0.1943 C 34.9795 0.049 34.5632 0 34.1402 0 Z" style="fill:#254048;stroke:none"/></svg>