<svg xmlns="http://www.w3.org/2000/svg" xmlns:xlink="http://www.w3.org/1999/xlink" viewBox="0 0 66.11764526367188 18.0"><path d="M 1.6029 0.691 Q 1.9133 0.691 1.9533 1.0414 Q 2.1736 13.2184 2.3339 14.7605 L 0.8418 14.7605 Q 1.002 13.1883 1.2424 1.0414 Q 1.2924 0.691 1.6029 0.691 ZM 2.434 15.3814 Q 2.5742 16.4428 2.0835 16.8935 Q 1.8432 17.1188 1.6003 17.1188 Q 1.3575 17.1188 1.1122 16.8935 Q 0.6215 16.4428 0.7717 15.3814 ZM 1.6029 0 Q 0.7417 0 0.6716 1.0414 Q 0.271 14.3299 0.0407 15.5416 Q -0.1796 16.7533 0.7116 17.5844 Q 1.1572 18 1.6029 18 Q 2.0485 18 2.4941 17.5844 Q 3.3853 16.7533 3.155 15.5416 Q 2.9347 14.3299 2.5041 1.0414 Q 2.454 0 1.6029 0 Z" style="fill:#000000;stroke:none"/><path d="M 6.2004 4.3919 Q 6.0802 4.3919 5.9126 4.5386 Q 5.251 5.4293 5.2001 7.0833 Q 5.4036 8.3811 6.1162 10.7477 Q 5.8617 12.6562 5.7345 15.9897 Q 5.6327 17.1094 6.3452 17.4402 Q 8.4573 18 11.689 18 Q 14.9462 18 17.0328 17.4402 Q 17.7708 17.1094 17.669 15.9897 Q 17.5418 12.6562 17.2873 10.7477 Q 17.9998 8.3811 18.2034 7.0833 Q 18.1525 5.4293 17.4909 4.5386 Q 17.3232 4.3919 17.203 4.3919 Q 17.0313 4.3919 16.9565 4.6913 Q 17.1346 5.2003 17.2873 5.6837 Q 17.4909 6.2945 17.44 6.8289 Q 17.3891 7.694 17.2746 8.2411 Q 17.1601 8.7883 16.8038 8.7883 Q 16.7848 8.7898 16.7664 8.7898 Q 16.1676 8.7898 16.1676 7.1851 Q 16.1676 6.5998 16.3203 5.7601 Q 16.1892 5.5372 16.0379 5.5372 Q 15.8954 5.5372 15.735 5.7346 Q 15.6587 6.3454 15.6333 7.0833 Q 15.5315 8.203 16.1676 10.2387 Q 15.9386 13.1142 15.9386 15.9897 Q 14.2082 16.2696 11.689 16.346 Q 9.1952 16.2696 7.4648 15.9897 Q 7.4648 13.1142 7.2358 10.2387 Q 7.872 8.203 7.7702 7.0833 Q 7.7448 6.3454 7.6684 5.7346 Q 7.508 5.5372 7.3656 5.5372 Q 7.2142 5.5372 7.0831 5.7601 Q 7.2358 6.5998 7.2358 7.1851 Q 7.2358 8.7898 6.6371 8.7898 Q 6.6186 8.7898 6.5996 8.7883 Q 6.2434 8.7883 6.1289 8.2411 Q 6.0144 7.694 5.9635 6.8289 Q 5.9126 6.2945 6.1162 5.6837 Q 6.2688 5.2003 6.447 4.6913 Q 6.3721 4.3919 6.2004 4.3919 Z" style="fill:#000000;stroke:none"/><path d="M 23.2441 11.2592 C 23.1814 11.8861 22.9261 12.4727 22.4784 13.019 C 22.3785 13.0395 22.2904 13.0497 22.2071 13.0497 C 21.9618 13.0497 21.7581 12.9611 21.4171 12.784 C 20.9604 12.5466 20.7678 12.26 20.8395 11.9242 C 20.9111 11.5884 21.1081 11.3891 21.4305 11.3264 C 21.5097 11.311 21.713 11.3064 21.9351 11.3064 C 22.2637 11.3064 22.6336 11.3165 22.7036 11.3165 C 22.886 11.3165 23.0533 11.2974 23.2441 11.2592 ZM 34.7679 13.9888 C 34.9918 13.9888 35.0455 14.1094 34.9783 14.5975 C 34.9111 15.0856 34.9313 15.7125 35.0387 16.4782 C 35.132 17.1428 34.6734 17.338 34.5915 17.338 C 34.5893 17.338 34.5875 17.3379 34.5859 17.3376 C 34.0082 17.2436 33.69 16.9976 33.8781 16.3035 C 34.0662 15.6095 34.4413 14.9942 34.7679 13.9888 ZM 23.8755 11.5333 C 24.8248 11.7303 25.7167 11.912 26.8093 11.9567 C 27.8026 11.9974 31.691 12.0179 32.4044 12.0239 C 33.4746 12.0329 34.3456 12.1202 35.0172 12.2859 C 35.6889 12.4515 36.1806 12.7235 36.6642 13.3952 C 37.1478 14.0669 37.4232 14.9311 37.4904 15.9879 C 37.5552 17.0087 37.3661 17.2688 36.7678 17.4416 C 36.7676 17.4417 36.7672 17.4417 36.7666 17.4417 C 36.7253 17.4417 35.9035 17.2272 35.7887 16.6484 C 35.6722 16.0618 35.4861 15.3632 35.5264 14.6512 C 35.5667 13.9392 35.2814 13.3873 34.8426 13.2888 C 34.4038 13.1902 33.8441 13.1029 33.1634 13.0268 C 32.4828 12.9507 30.9536 12.9037 28.5759 12.8858 C 27.8442 12.8802 27.1945 12.8775 26.6265 12.8775 C 25.3485 12.8775 23.7857 12.9329 23.6947 12.9329 C 23.354 12.9329 23.3177 12.9228 23.459 12.6966 C 23.6381 12.41 23.7769 12.0796 23.8755 11.5333 ZM 23.5954 10.5891 C 23.5271 10.5891 23.4476 10.7278 23.3569 10.7622 C 23.2061 10.8194 23.0463 10.8284 22.8774 10.8284 C 22.8001 10.8284 22.721 10.8265 22.6399 10.8265 C 22.6358 10.8265 22.6243 10.8265 22.6066 10.8265 C 22.4221 10.8265 21.5598 10.8274 21.2411 10.8492 C 20.7172 10.885 20.3881 11.1898 20.2538 11.6421 C 20.1194 12.0944 20.2538 12.4951 20.6568 12.8444 C 21.0598 13.1937 21.5031 13.4198 21.9867 13.5228 C 22.2395 13.5766 22.4366 13.6035 22.5781 13.6035 C 22.7072 13.6035 22.79 13.5811 22.8263 13.5362 C 22.9024 13.4422 23.686 13.3907 25.1772 13.3817 C 26.6683 13.3728 28.2131 13.3683 29.8117 13.3683 C 31.4103 13.3683 32.953 13.4892 34.4396 13.731 C 33.9291 14.6624 33.5709 15.4707 33.3649 16.1558 C 33.1589 16.8409 33.2776 17.3446 33.7209 17.667 C 33.9337 17.8218 34.1883 17.8992 34.4846 17.8992 C 34.8057 17.8992 35.1758 17.8084 35.5949 17.6267 C 35.9469 17.8756 36.2927 18 36.6324 18 C 36.794 18 36.9541 17.9719 37.1129 17.9156 C 37.6054 17.7409 37.8876 17.2842 37.9592 16.5453 C 38.0308 15.8065 37.9819 14.8974 37.5654 13.9167 C 37.149 12.9361 36.4726 12.2576 35.7338 11.9308 C 35.0146 11.6126 33.9993 11.5276 32.7371 11.5276 C 32.7026 11.5276 29.5931 11.5139 28.3072 11.4809 C 26.7355 11.4406 25.6205 11.3779 24.9622 11.2928 C 24.304 11.2077 24.0583 11.0127 23.9822 10.8291 C 23.9326 10.7096 23.7227 10.5891 23.5954 10.5891 Z" style="fill:#000000;stroke:none"/><path d="M 42.3215 0.5716 L 42.3215 1.3736 C 42.4077 1.3711 42.484 1.3691 42.5525 1.3691 C 42.7155 1.3691 42.8341 1.3804 42.9342 1.423 C 43.7046 1.6973 43.7588 2.8866 43.7302 3.5493 C 43.6901 4.4642 43.2347 5.5238 42.5457 5.6954 C 42.4097 5.735 42.258 5.7577 42.1061 5.7577 C 41.9431 5.7577 41.78 5.7316 41.6364 5.672 C 41.1618 5.4588 40.5647 4.3887 40.5647 3.5622 C 40.5647 2.22 40.7747 1.6666 41.3244 1.4242 C 41.4333 1.3799 41.5481 1.3729 41.6637 1.3729 C 41.7165 1.3729 41.7696 1.3744 41.8222 1.3744 C 41.8418 1.3744 41.8613 1.3742 41.8807 1.3736 L 41.8807 0.5716 ZM 42.1099 6.5212 L 42.4081 12.6182 L 42.4081 12.6182 L 41.9747 12.6164 L 42.1099 6.5212 ZM 41.9623 13.198 L 42.4249 13.201 L 42.4386 13.7043 L 41.9511 13.7055 L 41.9623 13.198 ZM 42.4554 14.2759 L 42.466 14.634 L 41.9305 14.6351 L 41.9305 14.6351 L 41.9386 14.2783 L 42.4554 14.2759 ZM 41.9181 15.208 L 42.4828 15.2156 L 42.4984 15.7548 L 41.9056 15.7621 L 41.9181 15.208 ZM 42.5152 16.3271 L 42.5488 17.4284 L 41.8689 17.4284 L 41.8932 16.3362 L 42.5152 16.3271 ZM 41.3091 0 L 41.3091 0.8337 C 40.553 1.0157 39.9408 1.6027 39.9876 3.5591 C 40.0172 4.7967 40.8048 5.9803 41.4679 6.2168 L 41.2848 18 L 43.1373 18 L 42.7917 6.2565 C 43.8217 5.9805 44.2891 4.4829 44.3182 3.5689 C 44.3806 1.5903 43.5671 0.9949 42.8931 0.8143 L 42.8931 0 Z" style="fill:#000000;stroke:none"/><path d="M 49.8514 6.6207 Q 49.0666 6.6207 48.9417 7.2271 L 48.9417 7.2628 Q 49.0309 7.4233 49.3163 7.4233 Q 50.1367 7.0666 50.1367 6.7634 L 50.1367 6.7277 Q 50.1367 6.6564 49.8514 6.6207 ZM 52.7051 5.5149 Q 52.5802 6.2105 51.4744 7.0131 L 51.8668 7.1736 L 52.4019 6.9774 L 52.6694 7.1558 Q 54.7205 8.1368 58.1094 8.1903 L 63.4244 8.2438 Q 63.461 8.2418 63.4961 8.2418 Q 64.4044 8.2418 64.3786 9.5726 Q 64.3519 10.9548 63.4423 12.346 Q 62.8715 12.346 62.2829 11.9091 Q 61.6944 11.4721 61.3198 10.8835 Q 60.9453 10.2949 60.3567 9.3496 L 60.3567 9.3496 Q 60.535 11.2224 61.4268 12.2925 Q 60.3388 12.2925 59.4916 12.4976 Q 59.068 12.6002 58.7849 12.6002 Q 58.5017 12.6002 58.3591 12.4976 Q 58.1817 12.3701 57.477 12.3701 Q 57.0481 12.3701 56.4239 12.4174 Q 55.9427 12.4538 55.5442 12.4538 Q 54.5764 12.4538 54.0963 12.239 Q 53.6504 11.8645 53.5345 10.9281 Q 53.4185 9.9917 54.0606 8.333 L 54.0606 8.333 Q 52.7408 9.2783 52.7408 11.2045 L 52.7408 11.8466 Q 52.0808 11.1689 51.7063 10.3484 Q 50.975 8.5292 49.7087 8.5292 Q 49.2271 8.5292 47.8537 9.1356 Q 47.39 8.9394 47.4792 8.5113 L 48.371 7.3163 Q 49.0131 6.2283 49.2984 6.1035 Q 49.4411 5.836 50.6896 5.836 Q 51.2247 5.9786 51.2247 6.2283 Q 51.2247 6.5672 50.868 6.9061 Q 51.5458 6.7634 51.849 6.1035 Q 51.849 5.943 52.7051 5.5149 ZM 53.4734 1.7202 Q 53.3865 1.7202 53.2758 1.8586 Q 51.9203 4.0167 50.8145 4.855 Q 50.3864 5.2295 49.6552 5.2474 Q 49.2984 5.2474 48.5672 4.7123 Q 47.4792 3.66 47.0511 2.9287 Q 46.5696 2.0726 46.4269 1.9834 Q 46.3555 1.9834 46.3199 2.1618 Q 46.3199 3.1784 48.3888 5.9251 Q 47.9964 6.4959 47.6575 7.2271 Q 47.3187 7.9584 46.8549 8.3419 Q 46.3912 8.7254 46.9441 9.0999 Q 46.9441 9.5636 47.7111 9.849 Q 48.3353 9.6707 49.6195 9.2961 Q 50.3864 9.2961 50.6718 9.9382 Q 51.6171 11.3651 51.6171 12.9168 Q 51.7241 14.9857 50.1902 16.8763 Q 49.7087 17.1974 49.7087 17.7681 Q 49.7087 18 50.2973 18 Q 51.2604 18 51.2604 17.7681 L 51.189 17.2866 Q 51.189 17.0369 51.5636 16.912 L 51.5636 16.8763 Q 51.5636 16.5375 52.7764 13.4697 Q 53.3293 13.4697 53.6504 14.0048 Q 54.0606 15.3603 54.0606 16.2521 Q 54.0606 16.4483 53.8109 17.0904 Q 53.5077 17.3222 53.4364 17.9287 L 54.8632 17.9287 L 54.7562 17.4828 Q 54.6849 17.2152 54.9524 17.019 L 54.8276 16.3591 Q 54.5957 13.8442 54.5957 13.3984 L 54.5957 13.3627 Q 56.0047 13.0238 56.7627 13.0238 Q 57.5208 13.0238 57.931 13.3003 Q 58.094 13.4101 58.3881 13.4101 Q 58.8339 13.4101 59.5808 13.1576 Q 60.39 12.884 60.823 12.884 Q 61.0533 12.884 61.1771 12.9614 Q 61.5338 13.1843 61.5338 13.7194 Q 61.5338 15.6813 60.535 17.0547 Q 60.214 17.3757 60.0535 17.9465 L 61.2841 17.9465 Q 61.6052 17.8395 61.4268 17.4114 Q 61.4625 16.9477 61.8549 16.8228 Q 61.8549 15.1998 63.2817 13.6124 Q 64.2806 14.1653 64.2984 15.3246 Q 64.2984 15.7705 64.12 16.5375 L 63.906 17.126 Q 63.7098 17.3579 63.5493 18 L 64.7265 18 Q 64.9405 17.9108 64.994 17.8038 L 64.8156 17.2331 Q 64.7265 16.9834 65.0653 16.7872 Q 64.887 15.8419 65.2972 15.3603 Q 64.4589 13.3984 64.4589 12.2747 Q 64.9048 10.4376 65.0297 8.8324 Q 65.2437 9.956 65.0832 11.5256 Q 64.9226 13.0951 65.6182 14.7717 Q 65.7543 15.0544 65.8659 15.0544 Q 65.9443 15.0544 66.0106 14.9144 Q 66.189 13.8978 66.082 9.2961 Q 65.9393 8.7254 65.7788 8.4222 Q 65.208 7.5482 64.7978 7.5125 L 59.0368 7.5125 Q 54.774 7.5125 52.7229 6.2997 Q 53.0618 5.6933 53.0975 5.4703 Q 53.1332 5.2474 53.0975 4.9263 Q 52.2414 5.176 51.8133 5.5862 L 51.4566 5.3187 Q 51.8311 5.0868 52.6516 3.8205 Q 53.472 2.5542 53.6147 1.8407 Q 53.5544 1.7202 53.4734 1.7202 Z" style="fill:#000000;stroke:none"/></svg>