<svg xmlns="http://www.w3.org/2000/svg" xmlns:xlink="http://www.w3.org/1999/xlink" viewBox="0 0 17.589176177978516 18.0"><path d="M 1.5902 15.5827 Q 1.4897 15.5827 1.3949 15.6134 Q 1.0244 15.7332 1.068 15.973 Q 1.1049 16.1759 1.3992 16.1759 Q 1.4528 16.1759 1.5148 16.1692 Q 1.918 16.1256 2.2232 15.8422 Q 1.8825 15.5827 1.5902 15.5827 ZM 1.779 15.3622 Q 2.5656 15.3622 4.2066 16.2999 Q 5.0298 16.7262 6.0115 16.7262 Q 6.4855 16.7262 6.9964 16.6269 Q 8.2824 16.3653 9.6991 16.1692 Q 10.1803 16.1025 10.6312 16.1025 Q 11.5082 16.1025 12.271 16.3544 Q 13.4262 16.7358 14.189 16.8448 Q 14.9519 16.9538 16.6084 17.041 Q 15.5404 17.15 14.516 17.15 Q 13.4916 17.15 12.0966 16.9211 Q 11.3992 16.8067 10.7535 16.8067 Q 10.1078 16.8067 9.5138 16.9211 Q 8.326 17.15 6.8112 17.3461 Q 6.4325 17.3952 6.0667 17.3952 Q 4.9694 17.3952 3.9886 16.9538 Q 3.0363 16.3038 2.0106 16.3038 Q 1.5573 16.3038 1.0898 16.4307 Q 0.6757 16.4089 0.7193 15.973 Q 0.959 15.3845 1.7437 15.3627 Q 1.7611 15.3622 1.779 15.3622 ZM 2.3616 13.1392 Q 1.8901 13.1392 1.4821 14.5781 Q 1.1407 13.3074 0.6013 13.3074 Q 0.5208 13.3074 0.4359 13.3357 Q -0.218 13.7498 0.8718 14.9268 Q 0 15.4281 0 16.191 Q 0 16.9538 1.286 17.041 Q 1.6836 16.9367 2.0627 16.9367 Q 2.9512 16.9367 3.738 17.5096 Q 4.4115 18 5.8735 18 Q 6.8482 18 8.1734 17.782 Q 9.801 17.3238 11.337 17.3238 Q 11.9196 17.3238 12.489 17.3897 Q 13.9125 17.5545 14.9137 17.5545 Q 15.3687 17.5545 15.7365 17.5205 Q 17.5892 17.4769 17.5892 17.1718 Q 17.0879 16.714 16.1725 16.5615 Q 14.2326 16.5397 12.6306 15.8858 Q 11.8296 15.5589 10.6663 15.5589 Q 9.503 15.5589 7.9772 15.8858 Q 6.9934 16.1341 6.1453 16.1341 Q 4.9831 16.1341 4.0758 15.6679 Q 3.1386 15.1012 2.0924 14.7306 Q 2.9642 14.055 2.9097 13.6082 Q 2.8552 13.1613 2.3757 13.1395 Q 2.3687 13.1392 2.3616 13.1392 Z" style="fill:#254048;stroke:none"/></svg>