<svg xmlns="http://www.w3.org/2000/svg" xmlns:xlink="http://www.w3.org/1999/xlink" viewBox="0 0 81.46022033691406 18.0"><path d="M 3.7739 0.4432 Q 3.8641 0.4432 3.9689 0.4791 Q 4.2484 0.575 4.1766 0.8385 Q 4.1047 1.102 3.8571 1.15 Q 3.8107 1.1589 3.7629 1.1589 Q 3.5557 1.1589 3.3221 0.9902 Q 3.3381 0.7028 3.5138 0.543 Q 3.6236 0.4432 3.7739 0.4432 ZM 7.2351 3.6096 Q 8.6087 3.6894 11.0044 5.087 Q 13.4002 6.4845 14.4703 7.299 Q 13.2085 6.8518 12.2343 6.8518 Q 9.2955 6.8518 8.0497 6.1251 Q 6.8039 5.3984 6.8119 5.079 Q 6.8199 4.7595 6.9476 4.7595 Q 8.1455 4.7595 8.2733 4.1846 L 7.9698 4.0887 Q 7.7303 4.3762 7.0834 4.3762 Q 6.4366 4.3762 6.4366 5.047 Q 6.4366 5.7019 7.7941 6.4445 Q 9.1517 7.1872 11.1162 7.1872 Q 12.2981 7.1872 12.9929 7.5306 Q 13.6877 7.874 13.9752 8.1455 L 13.0169 8.3052 Q 12.8092 7.874 10.7649 7.874 Q 9.551 7.874 8.992 7.1872 L 8.6886 7.1872 Q 9.551 7.9219 9.5271 8.5209 Q 9.515 8.8223 9.4726 8.8223 Q 9.4308 8.8223 9.3594 8.5288 Q 9.2156 7.9379 7.7143 7.6185 Q 7.6775 8.0891 7.6035 8.0891 Q 7.5168 8.0891 7.3789 7.4428 Q 7.2032 6.9956 5.7977 6.1171 Q 4.3922 5.2387 4.3602 4.9752 Q 4.3283 4.7116 5.2626 4.1606 Q 6.197 3.6096 7.2351 3.6096 ZM 1.3161 7.0425 Q 2.1708 7.0425 1.7249 9.3274 Q -0.1597 7.4587 1.0382 7.0914 Q 1.1911 7.0425 1.3161 7.0425 ZM 7.9858 7.9379 Q 8.7205 8.1455 8.976 8.6886 Q 9.4552 9.9982 9.4712 11.0524 Q 9.4871 12.1065 8.6886 12.1863 Q 7.3629 12.1863 7.3789 12.6655 L 5.8616 12.6655 Q 7.8101 9.0878 7.9858 7.9379 ZM 7.5226 13.2245 L 7.5226 15.6362 L 5.8616 13.2245 ZM 4.0728 0 Q 3.5138 0 3.0186 0.3514 Q 2.6353 0.7826 2.3957 0.9104 Q 0.7347 1.9805 0.3673 3.0825 Q 0.3673 3.4101 0.5112 3.4101 Q 0.5707 3.4101 0.6548 3.354 Q 1.4055 2.0284 2.7311 1.6291 Q 3.1145 1.7462 3.402 1.7462 Q 3.5457 1.7462 3.6655 1.7169 Q 3.8851 1.6633 4.054 1.6633 Q 4.1615 1.6633 4.2484 1.685 Q 4.472 1.7409 4.1925 2.3398 Q 3.913 2.9388 3.6815 3.8012 Q 3.4499 4.6637 3.8651 5.1429 Q 4.5839 5.8296 6.74 7.2192 Q 7.0914 7.5546 7.0435 7.8421 Q 7.0275 9.1677 6.3088 10.7409 Q 5.6441 12.1959 4.8427 12.1959 Q 4.7776 12.1959 4.7116 12.1863 Q 3.5776 12.1863 3.4339 12.6655 L 3.1464 12.6655 L 2.2999 9.8545 L 3.7214 9.4073 L 3.5617 8.9281 L 2.1402 9.3594 Q 2.6289 6.5899 1.3867 6.5899 Q 1.1675 6.5899 0.8944 6.6761 Q -0.9104 7.2351 1.4215 9.5989 L 0 10.0302 L 0.1597 10.5253 L 1.5652 10.0941 L 2.3798 12.6655 L 0 12.6655 L 0 13.2245 L 5.1908 13.2245 L 7.5067 16.5785 L 7.5067 18 L 8.0657 18 L 8.0657 13.2245 L 12.1384 13.2245 L 12.1384 12.6655 L 9.9503 12.6655 Q 9.9343 12.2662 10.0701 12.0426 Q 10.2059 11.819 10.118 11.5555 Q 10.0302 11.2919 9.9902 10.3496 Q 9.9503 9.4073 9.8705 8.2094 L 11.835 8.2094 Q 12.1384 8.2094 13.0169 8.7365 L 14.7418 8.433 Q 14.2307 7.6983 13.0169 7.2192 L 13.0169 7.2192 Q 13.2245 7.2671 14.5022 7.7303 Q 14.9175 7.6983 14.8057 7.2511 Q 14.646 6.9796 14.1349 6.5643 Q 9.0559 3.2582 7.2192 3.2582 Q 5.8296 3.2582 5.071 3.7613 Q 4.9262 3.8574 4.8404 3.8574 Q 4.477 3.8574 5.1748 2.1322 Q 6.0373 0 4.0728 0 Z" style="fill:#000000;stroke:none"/><path d="M 21.1947 14.1718 C 22.2687 14.1718 23.6131 14.7235 24.2636 15.374 C 24.8327 15.9432 24.9071 16.6977 24.928 17.3989 L 17.493 17.3989 C 17.5139 16.6977 17.5883 15.9432 18.1574 15.374 C 18.808 14.7235 20.1207 14.1718 21.1947 14.1718 ZM 21.1947 13.5707 C 19.9206 13.5707 18.5496 14.1593 17.7461 14.9627 C 16.922 15.7868 16.8286 16.8718 16.8286 17.6836 L 16.8286 18 L 25.5607 18 L 25.5607 17.6836 C 25.5607 16.8718 25.499 15.7868 24.6749 14.9627 C 23.8714 14.1593 22.4688 13.5707 21.1947 13.5707 Z" style="fill:#000000;stroke:none"/><path d="M 31.9268 14.1718 C 33.0008 14.1718 34.3452 14.7235 34.9957 15.374 C 35.5648 15.9432 35.6392 16.6977 35.6601 17.3989 L 28.2251 17.3989 C 28.246 16.6977 28.3204 15.9432 28.8895 15.374 C 29.5401 14.7235 30.8528 14.1718 31.9268 14.1718 ZM 31.9268 13.5707 C 30.6527 13.5707 29.2817 14.1593 28.4782 14.9627 C 27.6541 15.7868 27.5607 16.8718 27.5607 17.6836 L 27.5607 18 L 36.2928 18 L 36.2928 17.6836 C 36.2928 16.8718 36.2311 15.7868 35.407 14.9627 C 34.6035 14.1593 33.2009 13.5707 31.9268 13.5707 Z" style="fill:#000000;stroke:none"/><path d="M 59.9836 11.8102 Q 60.4722 11.8102 60.4722 12.3101 L 60.4722 16.1506 L 58.9951 16.1506 L 59.4723 12.1056 Q 59.495 11.8102 59.9836 11.8102 ZM 41.7925 12.9464 L 43.1559 15.7643 L 42.2924 15.7643 L 41.7925 14.4917 L 41.2925 15.7643 L 41.0653 15.7643 Q 41.0653 16.4915 41.8152 16.4915 L 43.1105 16.4915 Q 43.6786 16.5596 43.1559 16.696 Q 42.7655 16.7972 42.3612 16.7972 Q 42.1302 16.7972 41.8947 16.7642 Q 41.2471 16.6733 40.2472 16.2642 L 41.7925 12.9464 ZM 41.7925 10.9466 L 39.6109 15.8779 Q 39.4064 15.7643 39.0655 15.4916 L 38.2928 16.446 Q 39.4518 17.3096 41.1334 17.7868 Q 41.8848 18 42.8539 18 Q 44.0538 18 45.5875 17.6732 L 61.1994 17.8549 L 61.1994 12.3101 Q 61.1994 11.1966 60.0177 11.1966 Q 58.836 11.1966 58.7678 11.8329 Q 58.2906 16.1506 57.7452 16.1506 L 45.2921 16.4233 Q 44.4967 16.0824 43.9513 15.8779 L 41.7925 10.9466 Z" style="fill:#000000;stroke:none"/><path d="M 80.6359 5.9846 L 80.6359 11.8814 L 78.9582 11.8814 L 78.9582 8.9647 L 65.7014 8.9647 L 65.7014 11.8814 L 64.0237 11.8814 L 64.0237 5.9846 ZM 63.1994 5.1604 L 63.1994 12.7056 L 65.7014 12.7056 L 65.7014 18 L 70.8398 18 L 70.8398 17.2074 L 66.5257 17.2074 L 66.5257 9.789 L 78.1657 9.789 L 78.1657 17.2074 L 70.841 17.2074 L 70.841 18 L 78.9582 18 L 78.9582 12.7056 L 81.4602 12.7056 L 81.4602 5.1604 Z" style="fill:#000000;stroke:none"/></svg>