<svg xmlns="http://www.w3.org/2000/svg" xmlns:xlink="http://www.w3.org/1999/xlink" viewBox="0 0 78.00731658935547 18.0"><path d="M 7.699 9.3293 Q 8.3318 9.3293 8.3318 9.8077 Q 8.3219 10.306 7.689 10.306 Q 7.0561 10.306 5.8004 9.8077 Q 7.0661 9.3293 7.699 9.3293 ZM 4.3453 11.8209 Q 5.0828 12.2195 5.4615 14.4121 Q 5.6409 16.1263 4.3453 16.1263 Q 3.0298 16.1263 3.2091 14.4121 Q 3.5879 12.2195 4.3453 11.8209 ZM 8.9738 0 Q 7.7442 0 6.6575 0.4693 Q 5.3419 1.0374 4.734 2.3629 Q 4.126 3.6884 3.9467 6.3394 L 3.9467 9.0503 Q 2.988 8.7667 1.517 8.7667 Q 0.8166 8.7667 0 8.831 L 0 9.7479 Q 0.6596 9.6769 1.2378 9.6769 Q 2.9312 9.6769 3.9267 10.2861 L 3.9068 10.2861 Q 3.0098 11.8209 2.661 12.7777 Q 2.3122 13.7344 2.2325 14.7111 Q 2.2125 15.927 2.6809 16.5549 Q 3.1493 17.1828 4.3453 17.1828 Q 5.5213 17.1828 5.9897 16.5549 Q 6.4582 15.927 6.4382 14.7111 Q 6.3585 13.7344 6.0097 12.7777 Q 5.6609 11.8209 5.023 10.5053 L 5.023 10.5053 Q 6.6917 11.1403 7.7155 11.1403 Q 9.1987 11.1403 9.3285 9.8077 Q 9.1994 8.4821 7.724 8.4821 Q 6.6926 8.4821 5.0031 9.13 L 5.0031 6.4192 Q 5.1227 2.333 6.7671 1.4958 Q 8.1082 0.8131 9.3698 0.8131 Q 9.6551 0.8131 9.9364 0.848 Q 11.4612 1.0374 12.3682 2.5124 Q 13.2751 3.9874 13.4047 7.1168 Q 13.5342 10.2462 13.5741 13.276 Q 14.0126 16.1861 15.5474 18 L 16.2451 17.3821 Q 14.7701 15.4885 14.4511 13.3158 Q 14.3515 11.6814 14.3116 8.4523 Q 14.2717 5.2232 13.6937 3.4093 Q 13.1156 1.5955 12.0692 0.8679 Q 11.0227 0.1404 9.4979 0.0208 Q 9.2327 0 8.9738 0 Z" style="fill:#254048;stroke:none"/><path d="M 22.9477 13.0801 L 23.8961 15.293 Q 23.4219 15.4511 22.9477 15.4511 Q 22.4735 15.4511 21.9992 15.293 L 22.9477 13.0801 ZM 22.9477 11.3413 L 20.873 15.8858 Q 21.8412 16.3205 22.9477 16.3205 Q 24.0542 16.3205 25.0223 15.8858 L 22.9477 11.3413 ZM 25.7534 9.8791 Q 25.9115 13.1393 26.6821 16.0439 Q 25.7337 17.1109 22.9477 17.1109 Q 20.1617 17.1109 19.2132 16.0439 Q 19.9838 13.1393 20.1419 9.8791 ZM 18.9564 9.0097 Q 18.4822 9.0097 18.4822 9.4444 Q 18.4822 9.8791 18.9564 9.8791 Q 19.0749 9.9779 19.3318 10.0965 Q 19.1737 12.9813 18.2451 16.5774 Q 19.9838 18 22.9477 18 Q 25.9115 18 27.6503 16.5774 Q 26.7216 12.9813 26.5635 10.0965 Q 26.8204 9.9779 26.9389 9.8791 Q 27.4132 9.8791 27.4132 9.4444 Q 27.4132 9.0097 26.9389 9.0097 Z" style="fill:#254048;stroke:none"/><path d="M 35.1717 10.5619 L 35.1717 11.1246 L 32.2 11.1246 L 32.2 10.5619 ZM 33.677 11.6697 Q 35.5409 11.6697 36.2531 12.6193 Q 36.9652 13.5688 36.9652 14.3249 Q 36.9477 15.5031 35.9805 16.3823 Q 35.0134 17.2615 33.677 17.2615 Q 32.323 17.2615 31.3559 16.3823 Q 30.3888 15.5031 30.3888 14.3425 Q 30.3888 13.5688 30.9691 12.6193 Q 31.5493 11.6697 33.677 11.6697 ZM 31.3559 9.9817 L 31.3559 11.3005 Q 30.7229 11.6697 30.1954 12.4962 Q 29.6678 13.3226 29.6503 14.3249 Q 29.6503 15.5031 30.6262 16.7076 Q 31.6021 17.9121 33.677 18 Q 35.7344 17.9121 36.7191 16.7076 Q 37.7038 15.5031 37.7038 14.3425 Q 37.6862 13.3226 37.1587 12.4874 Q 36.6311 11.6521 35.9805 11.2829 L 35.9805 9.9817 Z" style="fill:#254048;stroke:none"/><path d="M 45.2252 10.5619 L 45.2252 11.1246 L 42.2535 11.1246 L 42.2535 10.5619 ZM 43.7305 11.6697 Q 45.5944 11.6697 46.3066 12.6193 Q 47.0188 13.5688 47.0188 14.3249 Q 47.0012 15.5031 46.034 16.3823 Q 45.0669 17.2615 43.7305 17.2615 Q 42.3766 17.2615 41.4094 16.3823 Q 40.4423 15.5031 40.4423 14.3425 Q 40.4423 13.5688 41.0226 12.6193 Q 41.6029 11.6697 43.7305 11.6697 ZM 41.4094 9.9817 L 41.4094 11.3005 Q 40.7764 11.6697 40.2489 12.4962 Q 39.7214 13.3226 39.7038 14.3249 Q 39.7038 15.5031 40.6797 16.7076 Q 41.6556 17.9121 43.7305 18 Q 45.7879 17.9121 46.7726 16.7076 Q 47.7573 15.5031 47.7573 14.3425 Q 47.7397 13.3226 47.2122 12.4874 Q 46.6847 11.6521 46.034 11.2829 L 46.034 9.9817 Z" style="fill:#254048;stroke:none"/><path d="M 55.2787 10.5619 L 55.2787 11.1246 L 52.307 11.1246 L 52.307 10.5619 ZM 53.784 11.6697 Q 55.648 11.6697 56.3601 12.6193 Q 57.0723 13.5688 57.0723 14.3249 Q 57.0547 15.5031 56.0876 16.3823 Q 55.1204 17.2615 53.784 17.2615 Q 52.4301 17.2615 51.4629 16.3823 Q 50.4958 15.5031 50.4958 14.3425 Q 50.4958 13.5688 51.0761 12.6193 Q 51.6564 11.6697 53.784 11.6697 ZM 51.4629 9.9817 L 51.4629 11.3005 Q 50.8299 11.6697 50.3024 12.4962 Q 49.7749 13.3226 49.7573 14.3249 Q 49.7573 15.5031 50.7332 16.7076 Q 51.7091 17.9121 53.784 18 Q 55.8414 17.9121 56.8261 16.7076 Q 57.8108 15.5031 57.8108 14.3425 Q 57.7932 13.3226 57.2657 12.4874 Q 56.7382 11.6521 56.0876 11.2829 L 56.0876 9.9817 Z" style="fill:#254048;stroke:none"/><path d="M 63.4825 13.0594 L 63.4825 13.4374 L 61.5927 13.4374 L 61.5927 13.0594 ZM 76.9274 12.4655 C 77.2139 12.4655 77.3594 12.6243 77.3594 12.9244 L 77.3594 16.3801 L 76.0365 16.3801 L 76.4684 12.7624 C 76.4821 12.5715 76.6409 12.4655 76.9274 12.4655 ZM 62.5376 13.7883 C 63.3269 13.7883 63.8829 13.9775 64.1844 14.3823 C 64.486 14.7871 64.6164 15.1669 64.6164 15.4892 C 64.6133 15.7002 64.5825 15.8946 64.5084 16.0832 C 64.2941 15.966 64.0795 15.8942 63.8875 15.8942 C 63.7224 15.8832 63.5346 15.8782 63.3475 15.8672 C 62.4233 16.0432 61.8717 16.1102 61.6736 16.1102 C 61.5416 16.1102 61.4847 16.2041 61.4847 16.3801 C 61.4847 16.6332 61.6665 16.7581 62.0516 16.7581 C 62.7029 16.6432 63.1938 16.5961 63.5365 16.5961 L 63.6445 16.5961 C 63.6567 16.5961 63.6701 16.5957 63.682 16.5957 C 63.688 16.5957 63.6936 16.5958 63.6985 16.5961 C 63.8399 16.5961 63.9538 16.649 64.0495 16.7311 C 64.0309 16.7492 64.0149 16.7673 63.9955 16.7851 C 63.8217 16.9441 63.6304 17.0715 63.4285 17.1631 C 63.2173 17.1984 62.9827 17.2171 62.6996 17.2171 L 62.5916 17.2171 C 62.5799 17.2171 62.5689 17.2173 62.5568 17.2173 C 62.5508 17.2173 62.5444 17.2172 62.5376 17.2171 C 62.1935 17.2081 61.8731 17.1733 61.5657 17.1361 C 61.3829 17.0472 61.211 16.93 61.0527 16.7851 C 60.6431 16.4103 60.4587 15.984 60.4587 15.4892 C 60.4587 15.1594 60.564 14.7871 60.8097 14.3823 C 61.0555 13.9775 61.6365 13.7883 62.5376 13.7883 ZM 76.9544 11.9255 C 76.2451 11.9255 75.8748 12.1239 75.8475 12.5194 C 75.5549 15.0331 75.3649 16.0742 75.0646 16.1372 C 74.5441 16.098 74.1509 16.0811 73.7955 16.0811 C 73.1423 16.0811 72.6166 16.138 71.6628 16.2181 C 70.6929 16.384 66.563 16.5872 65.4533 16.8391 L 65.4263 16.8391 C 65.2377 16.6409 65.0582 16.4902 64.8864 16.3531 C 65.0226 16.0643 65.1024 15.7719 65.1024 15.4892 C 65.0949 15.0544 64.9748 14.6574 64.7514 14.3013 C 64.528 13.9452 64.271 13.6758 63.9955 13.5184 L 63.9955 12.7084 L 61.0527 12.7084 L 61.0527 13.5454 C 60.7846 13.7028 60.5472 13.949 60.3238 14.3013 C 60.1004 14.6536 59.9802 15.0619 59.9728 15.4892 C 59.9728 15.9711 60.1593 16.4548 60.5397 16.9471 C 60.4692 16.9282 60.3926 16.9141 60.3238 16.8931 C 59.9937 16.8931 59.8108 17.086 59.8108 17.46 C 59.8548 17.8011 61.047 17.989 63.4015 18 L 64.5624 17.865 L 78.0073 17.919 L 78.0073 12.9244 C 78.0073 12.256 77.6637 11.9255 76.9544 11.9255 Z" style="fill:#254048;stroke:none"/></svg>