<svg xmlns="http://www.w3.org/2000/svg" xmlns:xlink="http://www.w3.org/1999/xlink" viewBox="0 0 39.14656066894531 18.0"><path d="M 4.8305 0.3442 Q 5.2529 0.3442 5.6463 0.5773 L 5.6463 0.5919 Q 5.6463 0.8541 5.3841 1.0143 Q 4.9325 1.1309 4.9325 1.16 L 5.4132 1.2183 L 5.486 1.2183 Q 5.7337 1.1746 5.9376 0.956 Q 6.0687 1.4659 6.1416 1.5096 Q 6.3892 1.5242 6.8408 2.0049 L 8.0353 3.5636 Q 9.3027 5.37 9.9291 6.2149 L 9.9291 6.2295 Q 8.2247 5.3991 7.9479 5.2389 Q 6.8408 4.7727 5.8793 4.0735 Q 4.8596 3.2868 4.6994 2.6604 Q 4.6994 2.4419 4.9325 2.1069 L 5.4715 1.4076 L 5.3986 1.3931 Q 5.1801 1.4659 4.9033 1.7281 Q 4.4954 2.1506 4.4372 2.4419 L 4.4226 2.4419 L 4.3935 1.9758 Q 4.3935 1.7573 4.4663 1.4513 L 4.4663 1.3931 Q 4.2478 0.5773 4.175 0.5773 L 4.4663 0.4025 L 4.4226 0.5482 Q 4.4226 0.6938 4.5537 0.7521 L 4.612 0.7521 Q 4.7576 0.7521 4.7722 0.5773 L 4.7722 0.519 Q 4.7722 0.4607 4.6848 0.3588 L 4.8305 0.3442 ZM 5.1801 4.1609 Q 5.2675 4.1609 5.3549 4.4959 Q 5.486 5.3991 6.5057 6.8996 Q 6.3455 6.9724 6.229 7.1181 Q 5.8211 6.6956 5.6608 6.6956 L 5.6463 6.6956 Q 5.6608 5.8653 5.1801 4.1609 ZM 5.6754 4.5979 Q 6.4912 5.2389 7.4526 5.807 L 7.4526 7.1181 Q 7.1321 6.8267 6.7971 6.7685 L 6.127 5.7196 Q 5.8211 5.1952 5.6754 4.6271 L 5.6754 4.5979 ZM 0.8624 3.4942 Q 1.0035 3.4942 1.1595 3.5782 Q 1.3197 3.753 1.3197 3.9351 Q 1.3197 4.1172 1.1886 4.3794 Q 1.3343 4.5833 1.5674 4.8019 Q 1.8733 5.1369 2.5725 5.705 Q 3.3446 6.3023 3.6651 6.6082 Q 3.2863 7.1909 3.2135 7.6425 Q 1.3634 5.6031 0.8973 4.9985 Q 0.4311 4.394 0.402 4.1755 Q 0.3728 3.9569 0.5039 3.7384 Q 0.6351 3.5199 0.8026 3.4981 Q 0.8321 3.4942 0.8624 3.4942 ZM 5.8793 7.1618 L 6.1998 7.4968 L 6.5932 7.1909 L 6.6514 8.502 Q 6.3746 8.451 6.0796 8.451 Q 5.7847 8.451 5.4715 8.502 L 5.8502 7.1618 ZM 6.564 4.8601 L 7.1176 5.1806 Q 10.2787 6.7393 10.3224 6.7393 Q 11.1236 7.6425 11.852 8.4146 L 11.852 8.4437 L 10.8177 8.604 L 8.7783 6.4188 Q 8.1956 5.9236 6.564 4.8893 L 6.564 4.8601 ZM 6.0833 9.0701 Q 7.3652 9.1284 7.7003 10.221 L 4.4372 10.221 Q 4.8159 9.1284 6.0833 9.0701 ZM 6.4183 10.7551 Q 6.9136 14.0591 6.9136 14.5329 L 6.9428 15.1593 L 6.4183 15.1593 L 6.4183 10.7551 ZM 5.0085 0 Q 4.5637 0 4.2041 0.2131 Q 4.1167 0.2277 3.9419 0.3442 Q 3.5923 0.6064 3.5923 0.8104 L 3.6068 0.8249 L 3.7962 0.8104 L 3.9127 0.8249 Q 4.0438 0.8249 4.175 1.4368 Q 4.1021 1.6844 4.1021 1.9903 L 4.1021 2.0049 Q 4.1021 2.8644 4.7285 3.6365 Q 5.3695 5.7924 5.3549 6.783 Q 5.3549 6.9141 5.5152 6.9287 L 5.0781 8.4437 L 4.51 8.9245 L 3.636 8.0213 Q 3.6505 7.2346 4.2041 6.5063 Q 3.6942 6.0255 2.893 5.3991 Q 2.0481 4.7436 1.8296 4.5105 Q 1.6111 4.2774 1.5674 4.2192 Q 1.815 3.6365 1.3926 3.2286 Q 1.1606 3.0046 0.9199 3.0046 Q 0.7222 3.0046 0.5185 3.1557 Q 0.0669 3.4908 0.0086 3.9132 Q -0.0496 4.3357 0.2709 4.8456 L 1.0429 5.807 L 4.1021 9.2304 Q 3.8836 9.6965 4.0293 9.8859 L 3.7379 10.6726 L 5.7191 10.6726 L 5.7191 18 L 6.4183 18 L 6.4183 15.7857 L 6.9573 15.7857 Q 7.4235 15.7857 7.4235 15.1739 Q 7.4526 14.1979 6.8117 10.6726 L 8.3995 10.6726 Q 8.2538 10.1627 8.0499 9.8859 L 8.2684 9.58 Q 8.2393 9.2012 7.7294 9.0556 Q 7.4672 8.7059 7.0447 8.502 L 6.9865 7.1472 L 7.2924 7.3075 L 7.846 7.7882 Q 7.7586 6.7393 7.7586 6.0255 L 7.7586 6.0255 L 8.1373 6.2877 Q 8.4724 6.4334 9.157 7.2492 Q 10.6866 8.9099 10.7158 8.9099 Q 12.3036 8.7059 12.3036 8.5166 L 11.211 7.2783 L 11.211 7.2783 Q 12.1725 7.8902 12.6532 8.0941 L 12.6824 8.0941 Q 12.4056 7.8319 11.8666 7.4386 L 11.8666 7.4386 L 12.1434 7.5405 Q 12.3036 7.5114 12.289 7.2783 L 9.7543 5.5011 Q 8.5889 3.7676 7.8314 2.8207 Q 7.6129 2.5148 7.1904 1.9539 Q 6.768 1.3931 6.3892 1.2911 Q 6.3309 1.2765 6.229 0.8832 Q 6.0542 0.4899 5.8939 0.4025 Q 5.588 0.0237 5.0927 0.0019 Q 5.0502 0 5.0085 0 Z" style="fill:#254048;stroke:none"/><path d="M 15.0574 0 L 15.0574 0 L 17.3074 0 L 17.6824 0 L 17.6824 0.375 L 17.6824 9 L 17.6824 9.375 L 16.9324 9.375 L 16.9324 9 L 16.9324 0.375 L 17.3074 0.375 L 17.3074 0.75 L 15.0574 0.75 L 14.6824 0.75 L 14.6824 0 Z" style="fill:#254048;stroke:none"/><path d="M 24.0484 14.1718 C 25.1224 14.1718 26.4668 14.7235 27.1173 15.374 C 27.6864 15.9432 27.7608 16.6977 27.7817 17.3989 L 20.3468 17.3989 C 20.3676 16.6977 20.442 15.9432 21.0112 15.374 C 21.6617 14.7235 22.9744 14.1718 24.0484 14.1718 ZM 24.0484 13.5707 C 22.7743 13.5707 21.4033 14.1593 20.5999 14.9627 C 19.7758 15.7868 19.6824 16.8718 19.6824 17.6836 L 19.6824 18 L 28.4145 18 L 28.4145 17.6836 C 28.4145 16.8718 28.3527 15.7868 27.5286 14.9627 C 26.7251 14.1593 25.3225 13.5707 24.0484 13.5707 Z" style="fill:#254048;stroke:none"/><path d="M 34.7805 14.1718 C 35.8545 14.1718 37.1989 14.7235 37.8494 15.374 C 38.4185 15.9432 38.4929 16.6977 38.5138 17.3989 L 31.0789 17.3989 C 31.0997 16.6977 31.1741 15.9432 31.7433 15.374 C 32.3938 14.7235 33.7065 14.1718 34.7805 14.1718 ZM 34.7805 13.5707 C 33.5064 13.5707 32.1354 14.1593 31.332 14.9627 C 30.5079 15.7868 30.4145 16.8718 30.4145 17.6836 L 30.4145 18 L 39.1466 18 L 39.1466 17.6836 C 39.1466 16.8718 39.0848 15.7868 38.2607 14.9627 C 37.4572 14.1593 36.0546 13.5707 34.7805 13.5707 Z" style="fill:#254048;stroke:none"/></svg>