<svg xmlns="http://www.w3.org/2000/svg" xmlns:xlink="http://www.w3.org/1999/xlink" viewBox="0 0 19.630687713623047 18.0"><path d="M 1.647 0 C 1.3116 0 0.9769 0.0256 0.6524 0.0661 C 0.2052 0.1791 0.435 0.6916 0.8321 0.6916 C 0.8587 0.6916 0.8861 0.6892 0.9141 0.6844 C 1.7532 0.7809 2.7862 0.8344 3.4201 1.31 C 4.261 2.2265 3.8832 4.1312 3.9811 5.0354 C 3.9881 5.0841 3.991 8.6882 3.991 10.5146 C 3.1784 10.1253 2.2608 9.9293 1.3564 9.9293 C 0.9544 9.9293 0.555 9.9681 0.1686 10.0457 C -0.2722 10.2773 0.2453 10.5744 0.5913 10.5744 C 0.6325 10.5744 0.6713 10.5702 0.7057 10.5611 C 1.9318 10.6937 3.326 11.0222 3.9487 12.1628 C 4.0102 12.3692 3.9717 12.4401 3.8779 12.4401 C 3.6717 12.4401 3.1983 12.0977 2.9316 12.0977 C 2.9176 12.0977 2.9042 12.0986 2.8914 12.1006 C 2.3794 11.99 1.8427 11.932 1.3111 11.932 C 0.9218 11.932 0.5352 11.9631 0.1629 12.0274 C -0.2578 12.3051 0.2585 12.5609 0.6007 12.5609 C 0.6383 12.5609 0.6738 12.5578 0.7057 12.5514 C 1.9572 12.7023 3.3421 13.0416 3.9487 14.1841 C 3.9556 15.4542 3.9483 16.2936 3.9823 17.4617 C 3.9677 17.8213 4.2015 18 4.4383 18 C 4.6734 18 4.9114 17.824 4.9127 17.4741 C 4.9041 16.3232 4.8219 15.313 4.9728 14.1966 C 5.2772 12.9442 7.4502 12.752 8.7998 12.4427 C 9.0943 12.0964 8.5148 11.9679 8.1413 11.9679 C 8.0855 11.9679 8.0343 11.9708 7.9913 11.9762 C 7.8183 11.9629 7.6442 11.9561 7.4699 11.9561 C 6.5877 11.9561 5.6987 12.1312 4.9127 12.5359 C 4.8807 11.7811 5.6241 11.3467 6.1566 11.0433 C 6.997 10.6818 7.9222 10.6463 8.7998 10.4524 C 9.1131 10.1804 8.62 9.9516 8.2786 9.9516 C 8.2336 9.9516 8.1912 9.9555 8.1536 9.9639 C 7.9385 9.9432 7.7221 9.9327 7.5058 9.9327 C 6.6034 9.9327 5.7014 10.1164 4.8916 10.5146 C 4.9082 7.6635 4.9544 4.9042 4.8725 2.2071 C 4.8068 1.3732 4.3263 0.6078 3.5181 0.3584 C 2.9375 0.0943 2.2911 0 1.647 0 Z" style="fill:#254048;stroke:none"/><path d="M 15.2646 14.1718 C 16.3387 14.1718 17.683 14.7235 18.3335 15.374 C 18.9027 15.9432 18.9771 16.6977 18.9979 17.3989 L 11.563 17.3989 C 11.5838 16.6977 11.6583 15.9432 12.2274 15.374 C 12.8779 14.7235 14.1906 14.1718 15.2646 14.1718 ZM 15.2646 13.5707 C 13.9905 13.5707 12.6196 14.1593 11.8161 14.9627 C 10.992 15.7868 10.8986 16.8718 10.8986 17.6836 L 10.8986 18 L 19.6307 18 L 19.6307 17.6836 C 19.6307 16.8718 19.5689 15.7868 18.7448 14.9627 C 17.9414 14.1593 16.5388 13.5707 15.2646 13.5707 Z" style="fill:#254048;stroke:none"/></svg>