<svg xmlns="http://www.w3.org/2000/svg" xmlns:xlink="http://www.w3.org/1999/xlink" viewBox="0 0 31.223251342773438 18.0"><path d="M 0 0 L 0 8.2035 L 5.4995 8.2035 L 5.4995 7.14 L 1.0006 7.14 L 1.0006 0.971 L 17.0831 0.971 L 17.0831 7.14 L 12.5546 7.14 L 12.5546 8.2035 L 18.0541 8.2035 L 18.0541 0 ZM 15.4856 11.8885 C 15.4625 13.6381 16.144 13.0386 16.3721 13.8838 C 16.5976 14.3896 16.3934 15.2636 15.7596 17.104 L 14.5898 17.104 C 13.9682 15.2636 13.7699 14.3896 13.9953 13.8838 C 14.4298 12.9465 14.8822 13.6599 14.8822 11.8885 ZM 9.3662 3.7651 L 9.2649 11.1716 C 9.2761 11.9607 9.3157 12.4679 9.3833 12.6933 C 9.6201 13.5276 9.7384 14.221 9.7384 14.7734 C 9.7496 15.4385 9.6594 16.0698 9.4678 16.6673 C 9.4002 16.9604 9.2534 17.1182 9.028 17.1408 C 8.7912 17.107 8.6393 16.9491 8.5716 16.6673 C 8.38 16.0698 8.2954 15.4385 8.3179 14.7734 C 8.3179 14.221 8.4362 13.5276 8.6729 12.6933 C 8.7406 12.4679 8.7746 11.9607 8.7746 11.1716 L 8.6729 3.7651 ZM 2.7502 11.785 C 3.0061 11.785 3.3173 12.0497 3.6838 12.5789 C 4.0502 13.1082 4.3323 13.9196 4.53 15.0131 C 4.7162 15.7575 4.588 16.3218 4.146 16.7056 C 3.7408 17.0575 3.3113 17.2334 2.8572 17.2334 C 2.8159 17.2334 2.7744 17.2319 2.7327 17.229 C 2.691 17.2319 2.6495 17.2334 2.6082 17.2334 C 2.1542 17.2334 1.7246 17.0575 1.3195 16.7056 C 0.8774 16.3218 0.761 15.7575 0.9703 15.0131 C 1.1332 13.9196 1.4153 13.1082 1.8166 12.5789 C 2.2179 12.0497 2.5292 11.785 2.7502 11.785 ZM 8.0642 2.835 L 8.2334 11.1548 C 8.256 11.9552 8.1374 12.7384 7.8781 13.505 C 7.7428 13.9109 7.6752 14.3337 7.6752 14.7734 C 7.709 16.7011 8.1599 17.7494 9.028 17.9185 C 9.896 17.7494 10.347 16.6955 10.3808 14.7565 C 10.3808 14.3169 10.319 13.9055 10.195 13.5222 C 9.9808 12.7443 9.8511 11.9552 9.806 11.1548 L 9.9749 2.835 ZM 13.2652 10.7234 C 12.7613 10.7234 13.216 11.527 13.2666 11.5893 C 13.4738 11.5893 13.6119 11.6046 13.8008 11.6351 C 13.9898 11.6656 14.0842 11.7904 14.0842 12.0098 C 14.0842 12.2657 13.9319 12.5281 13.6272 12.7962 C 13.2128 13.2594 13.0351 13.625 12.9742 13.8931 C 12.8523 14.1978 13.1081 15.5628 13.7419 17.9883 L 16.6075 17.9883 C 17.2534 15.5628 17.5093 14.1916 17.3752 13.8747 C 17.3264 13.6188 17.155 13.2594 16.7406 12.7962 C 16.4358 12.5281 16.2833 12.2657 16.2833 12.0098 C 16.2833 11.7904 16.3718 11.6656 16.5485 11.6351 C 16.7253 11.6046 16.8696 11.5893 17.1012 11.5893 L 17.1012 11.5893 C 17.215 11.5143 17.6571 10.7234 17.1027 10.7234 C 17.1022 10.7234 17.1017 10.7234 17.1012 10.7234 L 13.2666 10.7234 C 13.2661 10.7234 13.2657 10.7234 13.2652 10.7234 ZM 2.7327 10.9824 C 2.2442 10.9824 1.7324 11.3256 1.1973 12.0119 C 0.6622 12.6983 0.3131 13.7044 0.1502 15.0305 C -0.0475 15.996 0.1531 16.7404 0.7521 17.2639 C 1.3138 17.7546 1.9292 18 2.5982 18 C 2.6428 18 2.6877 17.9989 2.7327 17.9967 C 2.7638 17.9977 2.7946 17.9982 2.8253 17.9982 C 3.5088 17.9982 4.1176 17.7506 4.6519 17.2552 C 5.2103 16.7375 5.4257 15.9902 5.2978 15.0131 C 5.1233 13.7684 4.7742 12.7855 4.2508 12.0643 C 3.7273 11.3431 3.2213 10.9824 2.7327 10.9824 Z" style="fill:#254048;stroke:none"/><path d="M 25.6387 9.9418 Q 30.088 9.9418 30.2162 13.439 Q 30.088 16.6433 27.3781 16.9362 L 27.3781 13.439 L 23.8992 13.439 L 23.8992 16.9362 Q 21.1893 16.6433 21.0611 13.439 Q 21.1893 9.9418 25.6387 9.9418 ZM 26.6091 14.208 L 26.6091 17.0461 Q 26.1239 17.101 25.6387 17.101 Q 25.1534 17.101 24.6682 17.0461 L 24.6682 14.208 ZM 25.6387 9.008 Q 20.3104 9.008 20.0541 13.439 Q 20.3055 18 25.4348 18 Q 25.5358 18 25.6387 17.9982 Q 25.7415 18 25.8425 18 Q 30.9719 18 31.2233 13.439 Q 30.9669 9.008 25.6387 9.008 Z" style="fill:#254048;stroke:none"/></svg>