<svg xmlns="http://www.w3.org/2000/svg" xmlns:xlink="http://www.w3.org/1999/xlink" viewBox="0 0 53.36977005004883 18.0"><path d="M 6.7082 10.1983 Q 6.9356 10.1983 7.1796 10.3017 Q 7.7261 10.5333 7.7261 13.9794 L 7.7261 17.2774 L 1.5378 17.2774 Q 3.9279 13.998 4.8173 12.3212 Q 5.7066 10.6444 6.1698 10.3572 Q 6.4262 10.1983 6.7082 10.1983 ZM 6.4453 9.4946 Q 6.3961 9.4946 6.3458 9.4957 Q 5.4657 9.5142 4.3633 11.6449 Q 3.2609 13.7756 0 18 L 8.4487 18 L 8.4302 13.2569 Q 8.3376 10.0886 7.7817 9.7829 Q 7.2576 9.4946 6.4453 9.4946 Z" style="fill:#254048;stroke:none"/><path d="M 19.2711 14.0998 Q 22.3787 14.0998 25.8618 15.6015 Q 22.3787 17.0614 19.2711 17.0614 Q 16.1843 17.0614 12.6804 15.6015 Q 16.1843 14.0998 19.2711 14.0998 ZM 19.2711 13.1404 Q 15.4335 13.1404 10.4487 15.5806 Q 15.4335 18 19.2711 18 Q 23.1087 18 28.0935 15.5806 Q 23.1296 13.1404 19.2711 13.1404 Z" style="fill:#254048;stroke:none"/><path d="M 39.1279 7.5269 Q 41.0079 7.5269 42.7974 8.0072 Q 44.6569 8.5063 46.497 9.8961 L 31.4441 9.8961 Q 33.2841 8.5063 35.1437 8.0072 Q 36.9331 7.5269 38.8132 7.5269 Q 38.8869 7.5269 38.9607 7.5276 L 38.9803 7.5276 Q 39.0542 7.5269 39.1279 7.5269 ZM 47.0646 10.6791 L 47.0646 15.3379 L 30.8764 15.3379 L 30.8764 10.6791 ZM 38.9607 6.8229 Q 36.7097 6.8229 34.8109 7.3612 Q 32.9122 7.8995 30.8764 9.4263 L 30.8764 7.097 L 30.0935 7.097 L 30.0935 18 L 30.8764 18 L 30.8764 16.1208 L 47.0646 16.1208 L 47.0646 18 L 47.8476 18 L 47.8476 7.097 L 47.0646 7.097 L 47.0646 9.4263 Q 45.0289 7.8995 43.1301 7.3612 Q 41.2314 6.8229 38.9803 6.8229 Z" style="fill:#254048;stroke:none"/><path d="M 51.5928 0 C 50.6629 0 49.8476 0.684 49.8476 1.562 L 49.8476 18 L 50.9836 18 L 50.9836 1.562 C 50.9836 1.1313 51.3621 0.992 51.5999 0.992 C 51.8495 0.992 52.2338 1.167 52.2338 1.6946 L 52.2338 12.4986 L 53.3698 12.4986 L 53.3698 1.6946 C 53.3698 0.8155 52.4992 0 51.5928 0 Z" style="fill:#254048;stroke:none"/></svg>