<svg xmlns="http://www.w3.org/2000/svg" xmlns:xlink="http://www.w3.org/1999/xlink" viewBox="0 0 137.78585815429688 18.0"><path d="M 3.6863 3.0715 C 3.4162 3.2015 3.086 3.5617 3.5862 3.6217 C 3.8263 3.6117 4.3766 3.3616 4.2766 3.1315 L 4.2766 3.1315 C 4.2247 3.1806 4.1721 3.1985 4.119 3.1985 C 3.9773 3.1985 3.8318 3.0715 3.6863 3.0715 ZM 1.7153 3.1615 C 1.3852 3.2415 1.2151 3.6017 1.6353 3.6817 C 1.6422 3.6824 1.6495 3.6827 1.6573 3.6827 C 1.899 3.6827 2.5583 3.3894 2.0155 3.3216 C 1.9254 3.2615 1.8354 3.1615 1.7153 3.1615 ZM 4.3466 0.6503 C 4.9369 1.3406 5.4571 2.141 5.5572 3.0615 C 5.6572 3.7218 5.6872 4.3821 5.7873 5.0324 C 5.3171 4.9924 5.4571 4.262 5.5472 3.9119 C 5.6272 3.2215 5.257 2.5812 4.9969 1.9709 C 4.8168 1.6408 4.6467 1.1205 4.1865 1.1105 C 3.6763 1.2006 3.3461 1.6308 3.016 2.0009 C 2.6758 1.6608 2.3156 1.2906 1.8454 1.1505 C 1.8209 1.1415 1.7932 1.138 1.7641 1.138 C 1.6588 1.138 1.5355 1.1844 1.4787 1.1844 C 1.4296 1.1844 1.4302 1.1497 1.5353 1.0205 C 1.5988 0.7963 1.7307 0.7298 1.894 0.7298 C 2.132 0.7298 2.4367 0.871 2.6934 0.871 C 2.7321 0.871 2.7697 0.8678 2.8059 0.8604 C 2.8903 0.8653 2.975 0.8678 3.0597 0.8678 C 3.4972 0.8678 3.9359 0.8012 4.3466 0.6503 ZM 4.1865 1.4107 C 4.5767 1.5107 4.6667 2.051 4.8568 2.3711 C 5.0969 2.9314 5.3871 3.5417 5.197 4.172 C 5.0469 4.4721 5.237 4.8523 5.217 5.0724 C 4.8833 5.3069 4.5903 5.8015 4.1474 5.8015 C 4.099 5.8015 4.0487 5.7956 3.9964 5.7827 C 3.5562 5.6927 3.3361 5.2725 2.996 5.0724 C 2.7497 5.3099 2.6039 5.8026 2.1983 5.8026 C 2.1426 5.8026 2.082 5.7933 2.0155 5.7727 C 1.6453 5.6927 1.1551 5.7327 1.045 5.2825 C 0.8549 4.8223 0.8349 4.312 0.8049 3.8118 L 0.8049 3.8118 C 0.8269 3.816 0.8473 3.8181 0.866 3.8181 C 1.0684 3.8181 1.0867 3.5831 1.1051 3.3816 C 1.1828 3.0888 1.3925 2.953 1.6257 2.953 C 1.7828 2.953 1.9505 3.0147 2.0955 3.1315 C 2.2656 3.3216 2.7859 3.4716 2.6758 3.7718 C 2.6258 3.9519 2.5657 4.142 2.5057 4.3321 L 2.9259 4.8923 C 2.9659 4.6022 3.3961 4.3621 3.146 4.0719 C 3.106 3.9419 2.9559 3.7718 2.9759 3.6717 C 3.156 3.3516 3.3961 3.0715 3.6763 2.8313 C 3.752 2.7578 3.8288 2.7289 3.9057 2.7289 C 4.1739 2.7289 4.4435 3.0804 4.6768 3.1115 C 4.9069 2.8614 4.6567 2.7613 4.4266 2.6312 C 4.2841 2.4969 4.1118 2.4354 3.9399 2.4354 C 3.6896 2.4354 3.4403 2.5659 3.2861 2.7913 C 3.096 2.9054 2.9637 3.2854 2.7969 3.2854 C 2.7443 3.2854 2.6882 3.2475 2.6258 3.1515 C 2.3204 2.9072 1.9542 2.6325 1.5537 2.6325 C 1.4949 2.6325 1.4354 2.6384 1.3752 2.6513 C 1.0921 2.7098 0.8376 3.2826 0.8161 3.2826 C 0.8156 3.2826 0.8152 3.2823 0.8149 3.2816 C 0.8049 2.8113 1.025 2.3911 1.1551 1.9309 C 1.2277 1.6285 1.4868 1.454 1.7511 1.454 C 1.9239 1.454 2.099 1.5286 2.2256 1.6908 C 2.5234 1.8014 2.7416 2.3246 3.0218 2.3246 C 3.0711 2.3246 3.1222 2.3085 3.176 2.2711 C 3.4862 1.9409 3.7363 1.5507 4.1865 1.4107 ZM 2.7658 8.354 C 4.0364 9.6646 5.207 12.9862 5.5071 14.3468 C 5.0169 13.9466 4.3466 13.6865 4.1965 13.4364 C 4.0364 13.1763 3.5962 10.6451 2.7658 8.354 ZM 7.288 5.9728 C 9.6891 7.3535 13.8711 14.1467 14.7615 15.2372 C 13.2608 14.2868 11.7801 13.3263 10.1694 12.546 C 7.9083 11.4354 5.9774 9.6346 4.1365 7.9538 C 5.6572 7.4435 6.7477 6.5831 7.288 5.9728 ZM 4.7968 14.5969 C 5.117 14.787 5.4071 15.0471 5.7573 15.1872 C 5.5472 15.7075 5.4171 16.2877 4.9869 16.6979 C 4.9061 16.8279 4.7908 16.8691 4.6591 16.8691 C 4.4315 16.8691 4.1551 16.7461 3.9238 16.7461 C 3.9077 16.7461 3.8919 16.7467 3.8764 16.7479 C 4.1565 16.0476 4.5767 15.7375 4.7968 14.5969 ZM 5.4771 5.2325 C 5.5377 5.3579 5.615 5.3992 5.6971 5.3992 C 5.8049 5.3992 5.9208 5.3279 6.0174 5.2825 C 6.2575 5.4526 7.0879 5.4326 6.5977 5.7927 C 6.2875 6.2129 4.6299 7.3588 3.4786 7.5609 C 2.9815 7.6482 3.8163 8.434 4.0865 8.7141 C 5.6472 10.1148 7.1779 11.5955 9.0488 12.606 C 10.2194 13.2663 11.45 13.8566 12.5805 14.5869 C 13.1208 15.3673 13.7611 16.0876 14.1713 16.948 C 13.7611 17.0681 13.3609 17.2382 12.9407 17.3382 C 12.719 17.3943 12.4788 17.4205 12.2381 17.4205 C 11.5772 17.4205 10.9129 17.2234 10.6196 16.908 C 10.0793 16.3378 9.489 13.9066 9.1789 13.0162 C 9.1347 12.916 9.0722 12.8826 9.0043 12.8826 C 8.8692 12.8826 8.7125 13.0147 8.6351 13.0147 C 8.6194 13.0147 8.6069 13.0093 8.5986 12.9962 C 8.5785 12.7499 8.3892 12.6197 8.2121 12.6197 C 8.0367 12.6197 7.8734 12.7474 7.8983 13.0162 C 7.8383 13.6465 7.7182 14.2768 7.4181 14.847 C 7.3813 14.9442 7.3045 14.9814 7.2033 14.9814 C 6.919 14.9814 6.4421 14.6881 6.1174 14.6069 C 6.2475 13.8366 5.197 9.8947 2.1155 6.5931 C 2.0079 6.4765 1.5382 5.9818 1.5794 5.9818 C 1.5841 5.9818 1.5957 5.9884 1.6153 6.0028 C 1.773 6.044 1.9507 6.0722 2.1266 6.0722 C 2.464 6.0722 2.7949 5.9684 2.9659 5.6527 C 2.992 5.5746 3.0246 5.544 3.0626 5.544 C 3.1998 5.544 3.4069 5.9428 3.6263 5.9428 C 3.7854 6.0489 3.9631 6.0976 4.14 6.0976 C 4.4302 6.0976 4.7179 5.9665 4.9169 5.7427 C 5.107 5.5726 5.287 5.4026 5.4771 5.2325 ZM 4.4366 0 C 4.1223 0.1397 3.5716 0.2795 3.0773 0.2795 C 3.0054 0.2795 2.9346 0.2765 2.8659 0.2701 C 2.819 0.2786 2.7714 0.2823 2.7233 0.2823 C 2.3864 0.2823 2.024 0.1013 1.6981 0.1013 C 1.574 0.1013 1.4552 0.1276 1.3452 0.2001 C 0.7949 1.0005 0.2947 1.8909 0.2346 2.8814 C 0.1246 4.7823 0.1746 5.4426 1.6753 7.0033 C 2.2656 8.344 3.3661 12.716 3.6963 13.9066 C 4.0565 14.2468 3.2461 16.1076 2.9059 16.5679 C 2.7208 16.823 2.2331 16.8355 1.7091 16.8355 C 1.6521 16.8355 1.5948 16.8353 1.5373 16.8353 C 1.066 16.8353 0.5889 16.8453 0.2947 17.0281 C 0.0145 17.2082 -0.0855 17.8785 0.0746 17.9685 C 0.2246 17.7384 0.5248 17.4283 0.7349 17.3983 L 0.7349 17.3983 C 0.5348 17.6084 1.2351 17.5083 1.3852 17.5583 C 1.7899 17.5651 2.1991 17.5991 2.6098 17.5991 C 2.8083 17.5991 3.0072 17.5912 3.2061 17.5683 C 3.2961 17.5289 3.3925 17.4674 3.4347 17.4674 C 3.4674 17.4674 3.4674 17.5046 3.4061 17.6184 C 3.6894 17.6922 4.0076 17.7292 4.3187 17.7292 C 5.0185 17.7292 5.6818 17.5422 5.8273 17.1681 C 6.1274 16.6179 6.4076 16.0376 6.6077 15.4373 C 6.863 15.4915 7.1843 15.6714 7.4417 15.6714 C 7.5171 15.6714 7.587 15.6559 7.6482 15.6174 C 7.9283 15.4273 8.2184 14.5369 8.3785 13.9466 C 8.3938 13.8853 8.4771 13.8553 8.5615 13.8553 C 8.6423 13.8553 8.7242 13.8828 8.7487 13.9366 C 9.0488 14.5369 9.5491 16.3778 10.0293 17.1481 C 10.3915 17.7191 11.27 18 12.2044 18 C 12.7927 18 13.4032 17.8887 13.9211 17.6684 C 14.5714 17.3883 15.0517 17.4483 14.9116 17.0881 C 14.6915 16.4878 14.3113 15.9176 13.9111 15.4073 L 13.9111 15.4073 C 14.4914 15.7675 15.0717 16.1377 15.652 16.4978 C 15.6998 16.6722 15.8201 16.7414 15.943 16.7414 C 16.1797 16.7414 16.4259 16.4846 16.1822 16.2277 C 13.9111 12.9461 10.2994 7.3535 7.7982 5.5426 C 7.398 5.1925 6.9278 4.9223 6.4076 4.7923 C 6.2375 4.3521 6.2875 3.7618 6.1875 3.2615 C 6.0874 2.2711 5.4871 0.6303 4.4366 0 Z" style="fill:#254048;stroke:none"/><path d="M 27.1033 14.0998 Q 30.2109 14.0998 33.694 15.6015 Q 30.2109 17.0614 27.1033 17.0614 Q 24.0165 17.0614 20.5126 15.6015 Q 24.0165 14.0998 27.1033 14.0998 ZM 27.1033 13.1404 Q 23.2657 13.1404 18.2809 15.5806 Q 23.2657 18 27.1033 18 Q 30.9409 18 35.9257 15.5806 Q 30.9618 13.1404 27.1033 13.1404 Z" style="fill:#254048;stroke:none"/><path d="M 40.5424 4.8329 Q 41.461 7.8394 41.7533 9.4957 Q 42.0456 11.152 43.0338 12.4604 Q 44.022 13.7687 45.6784 14.3394 Q 47.3347 14.9101 48.6987 16.1906 Q 50.0349 14.9101 51.6912 14.3394 Q 53.3475 13.7687 54.3358 12.4604 Q 55.324 11.152 55.6163 9.4957 Q 55.9086 7.8394 56.8272 4.8329 L 56.8272 4.8329 Q 56.2705 7.5888 55.9503 9.7741 Q 55.6302 11.9593 54.4054 13.3929 Q 53.1805 14.8265 51.4964 15.4668 Q 49.8122 16.1071 49.7844 17.137 L 47.5852 17.137 Q 47.5574 16.1071 45.8732 15.4668 Q 44.1891 14.8265 42.9642 13.3929 Q 41.7394 11.9593 41.4192 9.7741 Q 41.0991 7.5888 40.5424 4.8329 ZM 37.9257 0.9914 Q 40.264 4.137 40.4589 6.9764 Q 40.6537 9.8158 41.0574 11.5 Q 41.461 13.1841 42.825 14.4647 Q 44.1891 15.7452 45.5113 16.1767 Q 46.8336 16.6081 46.9728 18 L 50.3968 18 Q 50.536 16.6081 51.8582 16.1767 Q 53.1805 15.7452 54.5445 14.4647 Q 55.9086 13.1841 56.3122 11.5 Q 56.7158 9.8158 56.9107 6.9764 Q 57.1056 4.137 59.4439 0.9914 L 59.2769 0.9914 Q 57.885 2.5503 56.8968 3.6916 Q 55.9086 4.8329 55.1987 8.4379 Q 54.4889 12.0428 52.248 13.1145 Q 50.0071 14.1863 48.6987 14.9101 Q 47.3625 14.1863 45.1216 13.1145 Q 42.8807 12.0428 42.1708 8.4379 Q 41.461 4.8329 40.4728 3.6916 Q 39.4845 2.5503 38.0927 0.9914 Z" style="fill:#254048;stroke:none"/><path d="M 65.8416 10.2803 L 65.7783 17.304 L 62.0767 17.3672 L 62.045 10.312 L 65.8416 10.2803 ZM 66.4744 9.6792 L 61.4439 9.7108 L 61.4755 18 L 66.3794 17.9051 L 66.4744 9.6792 Z" style="fill:#254048;stroke:none"/><path d="M 72.8404 14.1718 C 73.9144 14.1718 75.2588 14.7235 75.9093 15.374 C 76.4784 15.9432 76.5528 16.6977 76.5737 17.3989 L 69.1388 17.3989 C 69.1596 16.6977 69.234 15.9432 69.8032 15.374 C 70.4537 14.7235 71.7664 14.1718 72.8404 14.1718 ZM 72.8404 13.5707 C 71.5663 13.5707 70.1953 14.1593 69.3919 14.9627 C 68.5678 15.7868 68.4744 16.8718 68.4744 17.6836 L 68.4744 18 L 77.2065 18 L 77.2065 17.6836 C 77.2065 16.8718 77.1447 15.7868 76.3206 14.9627 C 75.5171 14.1593 74.1145 13.5707 72.8404 13.5707 Z" style="fill:#254048;stroke:none"/><path d="M 88.2878 14.6287 C 88.9459 14.6287 89.3914 14.8716 89.6141 15.3677 L 86.9818 15.3677 C 87.2147 14.8716 87.65 14.6287 88.2878 14.6287 ZM 96.6808 16.0967 L 96.6808 17.2812 L 79.905 17.2812 L 79.905 16.0967 ZM 88.2878 14.0212 C 87.1539 14.0212 86.4452 14.4667 86.182 15.3677 L 79.2065 15.3677 L 79.2065 18 L 97.3996 18 L 97.3996 15.3677 L 90.4038 15.3677 C 90.1304 14.4667 89.4319 14.0212 88.2878 14.0212 Z" style="fill:#254048;stroke:none"/><path d="M 108.481 14.6287 C 109.139 14.6287 109.5845 14.8716 109.8072 15.3677 L 107.175 15.3677 C 107.4078 14.8716 107.8431 14.6287 108.481 14.6287 ZM 116.8739 16.0967 L 116.8739 17.2812 L 100.0982 17.2812 L 100.0982 16.0967 ZM 108.481 14.0212 C 107.3471 14.0212 106.6384 14.4667 106.3751 15.3677 L 99.3996 15.3677 L 99.3996 18 L 117.5927 18 L 117.5927 15.3677 L 110.5969 15.3677 C 110.3236 14.4667 109.625 14.0212 108.481 14.0212 Z" style="fill:#254048;stroke:none"/><path d="M 128.6741 14.6287 C 129.3322 14.6287 129.7776 14.8716 130.0004 15.3677 L 127.3681 15.3677 C 127.6009 14.8716 128.0363 14.6287 128.6741 14.6287 ZM 137.067 16.0967 L 137.067 17.2812 L 120.2913 17.2812 L 120.2913 16.0967 ZM 128.6741 14.0212 C 127.5402 14.0212 126.8315 14.4667 126.5683 15.3677 L 119.5927 15.3677 L 119.5927 18 L 137.7859 18 L 137.7859 15.3677 L 130.7901 15.3677 C 130.5167 14.4667 129.8181 14.0212 128.6741 14.0212 Z" style="fill:#254048;stroke:none"/></svg>